<svg width="64" height="64" viewBox="0 0 64 64" fill="none" xmlns="http://www.w3.org/2000/svg">
<g clip-path="url(#clip0)">
<path fill-rule="evenodd" clip-rule="evenodd" d="M42.5539 11.7219L17.1409 1.13316C16.6992 0.949052 16.1903 1.13819 15.9761 1.56624L13.8584 5.80174C13.6192 6.24409 13.7838 6.79669 14.2263 7.03586C14.6687 7.27503 15.2213 7.11038 15.4604 6.6679C15.4698 6.65056 15.4787 6.63282 15.4869 6.61482V6.61694L17.2245 3.1396L41.8529 13.4011C42.3167 13.5947 42.8495 13.3757 43.0431 12.9119C43.2366 12.4484 43.0176 11.9155 42.5539 11.7219ZM5.34192 7.44308L47.6969 16.973C48.1101 17.0663 48.404 17.4329 48.4048 17.8566C48.4055 18.3577 48 18.7647 47.4989 18.7656C47.4315 18.7662 47.3644 18.7586 47.2988 18.7434L5.83112 9.41365L3.91138 18.0551C3.80258 18.5446 3.31762 18.8532 2.82815 18.7444C2.33869 18.6356 2.03003 18.1507 2.13883 17.6612L4.25657 8.13135C4.30952 7.89602 4.45339 7.69126 4.65683 7.56168C4.86053 7.43316 5.10685 7.39054 5.34192 7.44308ZM53.8512 21.1861H53.8533C54.3539 21.1868 54.7592 21.593 54.7586 22.0936V25.2702V25.2723C54.7581 25.7729 54.3518 26.1782 53.8512 26.1777H53.8491C53.3485 26.1771 52.9432 25.7708 52.9437 25.2702V23.0011H1.81491V46.5991H36.9092C37.4103 46.5991 37.8166 47.0055 37.8166 47.5066C37.8166 48.0077 37.4103 48.414 36.9092 48.414H0.907458H0.90534C0.404757 48.4135 -0.000527113 48.0072 5.14593e-07 47.5066V22.0936V22.0915C0.000531761 21.5909 0.406875 21.1856 0.907458 21.1861H53.8512ZM34.7913 25.4216H43.1956C43.6967 25.4216 44.103 25.828 44.103 26.3291C44.103 26.8302 43.6967 27.2366 43.1956 27.2366H34.7913C34.2902 27.2366 33.8838 26.8302 33.8838 26.3291C33.8838 25.828 34.2902 25.4216 34.7913 25.4216ZM26.3205 25.4821C21.1742 25.4821 17.0024 29.6539 17.0024 34.8002C17.0077 39.9442 21.1765 44.113 26.3205 44.1183C31.4667 44.1183 35.6386 39.9464 35.6386 34.8002C35.6386 29.6539 31.4667 25.4821 26.3205 25.4821ZM26.3205 42.4241C22.1099 42.4241 18.6966 39.0108 18.6966 34.8002C18.7012 30.5916 22.1118 27.1809 26.3205 27.1763C30.5311 27.1763 33.9444 30.5896 33.9444 34.8002C33.9444 39.0108 30.5311 42.4241 26.3205 42.4241ZM40.0859 32.6824C40.0859 29.7726 46.1215 28.4469 51.7336 28.4469C57.3456 28.4469 63.3812 29.7726 63.3812 32.6824V58.0953C63.3812 61.0051 57.3456 62.3308 51.7336 62.3308C46.1215 62.3308 40.0859 61.0051 40.0859 58.0953V32.6824ZM51.7336 60.2131C57.928 60.2131 61.1036 58.6671 61.2634 58.0795V56.4297C59.0112 57.5606 55.2882 58.0953 51.7336 58.0953C48.1789 58.0953 44.457 57.5659 42.2037 56.4308V58.0953C42.3636 58.6671 45.5391 60.2131 51.7336 60.2131ZM51.7336 55.9776C57.928 55.9776 61.1036 54.4316 61.2634 53.844V52.1942C59.0112 53.3251 55.2882 53.8598 51.7336 53.8598C48.1789 53.8598 44.457 53.3304 42.2037 52.1953V53.8598C42.3636 54.4316 45.5391 55.9776 51.7336 55.9776ZM51.7336 51.7421C57.928 51.7421 61.1036 50.1961 61.2634 49.6085V47.9587C59.0112 49.0896 55.2882 49.6243 51.7336 49.6243C48.1789 49.6243 44.457 49.0949 42.2037 47.9598V49.6243C42.3636 50.1961 45.5391 51.7421 51.7336 51.7421ZM51.7336 47.5066C57.928 47.5066 61.1036 45.9606 61.2634 45.373V43.7232C59.0112 44.8541 55.2882 45.3889 51.7336 45.3889C48.1789 45.3889 44.457 44.8594 42.2037 43.7243V45.3889C42.3636 45.9606 45.5391 47.5066 51.7336 47.5066ZM51.7336 43.2711C57.928 43.2711 61.1036 41.7251 61.2634 41.1375V39.4877C59.0112 40.6186 55.2882 41.1534 51.7336 41.1534C48.1789 41.1534 44.457 40.6186 42.2037 39.4888V41.1534C42.3636 41.7251 45.5391 43.2711 51.7336 43.2711ZM51.7336 39.0356C57.928 39.0356 61.1036 37.4897 61.2634 36.902V35.2523C59.0112 36.3831 55.2882 36.9179 51.7336 36.9179C48.1789 36.9179 44.457 36.3831 42.2037 35.2533V36.9179C42.3636 37.4897 45.5391 39.0356 51.7336 39.0356ZM42.2037 32.7014C42.3742 33.2584 45.5487 34.8001 51.7336 34.8001C57.875 34.8001 61.0517 33.2817 61.2634 32.6824C61.0517 32.083 57.875 30.5646 51.7336 30.5646C45.5487 30.5646 42.3742 32.1053 42.2037 32.6951V32.7014ZM17.8497 42.3626H9.84567L6.05066 38.2118V31.3291L10.2417 27.2365H17.8497C18.3508 27.2365 18.7572 26.8302 18.7572 26.3291C18.7572 25.828 18.3508 25.4216 17.8497 25.4216H9.8732C9.63601 25.4211 9.40795 25.5135 9.23787 25.6789L4.50788 30.2925C4.33118 30.4989 4.23429 30.7619 4.23469 31.0337V38.5644C4.23469 38.7908 4.31927 39.0091 4.47188 39.1764L8.77409 43.8821C8.94602 44.0703 9.1893 44.1776 9.44435 44.1775H17.8497C18.3508 44.1775 18.7572 43.7711 18.7572 43.27C18.7572 42.7689 18.3509 42.3626 17.8497 42.3626ZM25.2616 33.4765C25.2616 33.557 25.4617 33.7412 25.791 33.7412H26.8499C28.2387 33.674 29.4212 34.7407 29.4971 36.129C29.4435 37.3139 28.5538 38.2927 27.3793 38.4585V38.5062C27.3793 39.0909 26.9052 39.565 26.3205 39.565C25.7357 39.565 25.2616 39.0909 25.2616 38.5062H24.2027C23.618 38.5062 23.1438 38.0321 23.1438 37.4473C23.1438 36.8625 23.618 36.3884 24.2027 36.3884H26.8499C27.1792 36.3884 27.3793 36.2042 27.3793 36.1237C27.3793 36.0432 27.1792 35.859 26.8499 35.859H25.791C24.4022 35.9262 23.2197 34.8595 23.1438 33.4712C23.1974 32.2863 24.0872 31.3075 25.2616 31.1417V31.0941C25.2616 30.5093 25.7357 30.0352 26.3205 30.0352C26.9052 30.0352 27.3793 30.5093 27.3793 31.0941H28.4382C29.023 31.0941 29.4971 31.5682 29.4971 32.1529C29.4971 32.7377 29.023 33.2118 28.4382 33.2118H25.791C25.4617 33.2118 25.2616 33.396 25.2616 33.4765Z" fill="#4A3598"/>
</g>
<defs>
<clipPath id="clip0">
<rect width="64" height="64" fill="white"/>
</clipPath>
</defs>
</svg>
