<svg width="64" height="64" viewBox="0 0 64 64" fill="none" xmlns="http://www.w3.org/2000/svg">
<path fill-rule="evenodd" clip-rule="evenodd" d="M63 16C63 7.729 56.271 1 48 1C39.729 1 33 7.729 33 16C33 22.368 36.995 27.808 42.606 29.98L40.586 32H32.546L25.546 40H13.563L1.266 53.321L2.735 54.678L14.438 42H26.455L33.455 34H41.415L44.774 30.641C45.69 30.843 46.637 30.955 47.607 30.98L42.586 36H33.5L27.5 44H15.546L1 60.624V63H59V26.164C61.474 23.488 63 19.923 63 16ZM35 16C35 8.832 40.832 3 48 3C55.168 3 61 8.832 61 16C61 23.168 55.168 29 48 29C40.832 29 35 23.168 35 16ZM51 30.698V61H47V34.414L50.665 30.749C50.7158 30.7399 50.7671 30.733 50.8185 30.7262C50.8794 30.7181 50.9403 30.7099 51 30.698ZM43.414 38L45 36.414V61H41V38H43.414ZM11 61V52.233L15 47.662V61H11ZM21 46V61H17V46H21ZM23 61V46H27V61H23ZM29 45.333L33 40V61H29V45.333ZM35 38H39V61H35V38ZM9 54.519V61H3.329L9 54.519ZM53 61V30.125C54.449 29.61 55.794 28.881 57 27.972V61H53ZM48 5C54.065 5 59 9.935 59 16C59 22.065 54.065 27 48 27C41.935 27 37 22.065 37 16C37 9.935 41.935 5 48 5ZM48 7C43.037 7 39 11.037 39 16C39 20.963 43.037 25 48 25C52.963 25 57 20.963 57 16C57 11.037 52.963 7 48 7ZM52 18C52 19.654 50.654 21 49 21V23H47V21H44V18H46V19H49C49.552 19 50 18.552 50 18C50 17.448 49.552 17 49 17H47C45.346 17 44 15.654 44 14C44 12.346 45.346 11 47 11V9H49V11H52V14H50V13H47C46.448 13 46 13.448 46 14C46 14.552 46.448 15 47 15H49C50.654 15 52 16.346 52 18ZM9 38H7V34H5V22H7V18H9V22H11V34H9V38ZM9 24H7V32H9V24ZM15 33H17V29H19V19H17V15H15V19H13V29H15V33ZM15 21H17V27H15V21ZM25 26H23V22H21V14H23V10H25V14H27V22H25V26ZM25 16H23V20H25V16Z" fill="#29939B"/>
</svg>
