<svg width="64" height="64" viewBox="0 0 64 64" fill="none" xmlns="http://www.w3.org/2000/svg">
<path fill-rule="evenodd" clip-rule="evenodd" d="M41.4118 0C28.9566 0 18.8235 10.1331 18.8235 22.5882C18.8235 28.1397 20.8378 33.2287 24.1722 37.1658L19.7647 41.5733L16.9412 38.7497L1.72097 53.9699C0.611137 55.0797 0 56.5552 0 58.1245C0 61.3643 2.6358 64 5.87545 64C7.44471 64 8.92022 63.3889 10.0299 62.2792L25.2503 47.0588L22.4267 44.2353L26.8342 39.8278C30.7713 43.1622 35.8605 45.1765 41.4118 45.1765C53.8669 45.1765 64 35.0434 64 22.5882C64 10.1331 53.8669 0 41.4118 0ZM7.36803 59.617C6.96935 60.0157 6.43915 60.2353 5.87533 60.2353C4.71153 60.2353 3.76471 59.2885 3.76471 58.1245C3.76471 57.5607 3.98431 57.0308 4.383 56.632L16.9412 44.0738L19.9262 47.0588L7.36803 59.617ZM41.4118 41.4118C31.0325 41.4118 22.5882 32.9675 22.5882 22.5882C22.5882 12.2089 31.0325 3.76471 41.4118 3.76471C51.7911 3.76471 60.2353 12.2089 60.2353 22.5882C60.2353 32.9675 51.7911 41.4118 41.4118 41.4118ZM41.4118 7.52937C33.1083 7.52937 26.3529 14.2846 26.3529 22.5882C26.3529 30.8918 33.1083 37.647 41.4118 37.647C49.7152 37.647 56.4706 30.8918 56.4706 22.5882C56.4706 14.2846 49.7152 7.52937 41.4118 7.52937ZM41.4118 33.8823C35.1842 33.8823 30.1176 28.8158 30.1176 22.5882C30.1176 16.3606 35.1842 11.2941 41.4118 11.2941C47.6393 11.2941 52.7059 16.3606 52.7059 22.5882C52.7059 28.8158 47.6393 33.8823 41.4118 33.8823ZM37.0956 21.2573L39.5294 23.6909L45.7279 17.4926L48.3898 20.1545L39.5294 29.0149L34.4337 23.9192L37.0956 21.2573Z" fill="#29939B"/>
</svg>
