<svg width="64" height="65" viewBox="0 0 64 65" fill="none" xmlns="http://www.w3.org/2000/svg">
<g clip-path="url(#clip0)">
<g clip-path="url(#clip1)">
<path d="M64 22.7008C63.9985 21.7292 63.7127 20.7438 63.0809 19.9315L58.0099 13.443C57.1605 12.3645 55.8681 11.8154 54.5766 11.8133C53.808 11.8133 53.0254 12.0103 52.3339 12.4415L47.3894 15.5178C46.8694 15.8494 45.9779 16.077 45.1167 16.0712C44.4477 16.074 43.8012 15.9402 43.3744 15.7293L38.5324 13.3839C37.7514 13.0079 36.8807 12.8538 36.0052 12.8523C34.7479 12.8582 33.4745 13.1672 32.4512 13.8763L31.8862 14.2727C31.4346 14.0473 30.7445 13.7039 29.9627 13.3149C29.0252 12.8553 27.9229 12.6699 26.8094 12.6663C25.8035 12.6692 24.7979 12.8242 23.9149 13.1972L20.6169 14.6044C20.0801 14.8372 19.2264 14.9892 18.3784 14.9854C17.5304 14.989 16.6781 14.837 16.1414 14.6044L12.8404 13.1964C12.2382 12.9397 11.5946 12.8299 10.9567 12.8292C10.2222 12.8299 9.49211 12.9747 8.81349 13.2495C8.13574 13.5259 7.50661 13.9339 7.00561 14.4938L0.995614 21.2245C0.329489 21.9684 -0.00138599 22.9052 -1.0991e-05 23.8273C-0.00138599 24.9269 0.469114 26.03 1.37661 26.8032L6.98286 31.5862L4.32336 34.3605C3.59024 35.1257 3.22524 36.1177 3.22524 37.0985C3.22386 38.1422 3.63836 39.1959 4.45936 39.9718L4.99886 40.4844C5.50724 40.9667 6.11811 41.2734 6.75736 41.437C6.43674 42.0268 6.26149 42.6734 6.26286 43.3213C6.26149 44.3657 6.67599 45.4187 7.49549 46.1954L7.49411 46.1947L8.03524 46.7095C8.80549 47.4397 9.80399 47.8033 10.7877 47.8027C11.3165 47.8034 11.8459 47.6972 12.3434 47.4892C12.518 48.1975 12.8786 48.8709 13.4459 49.409L13.987 49.9239C14.7572 50.654 15.7541 51.0177 16.7395 51.017C17.5097 51.0178 18.2835 50.7908 18.9496 50.3502C19.1445 50.977 19.4784 51.5712 19.9866 52.054L20.5277 52.5689C21.2964 53.299 22.2949 53.6627 23.2789 53.662C24.3267 53.6628 25.385 53.2512 26.1666 52.4352L28.5171 49.9807L31.7105 52.9362C32.4749 53.6452 33.456 53.9979 34.4245 53.9958C35.4885 53.998 36.5619 53.5718 37.3451 52.7333L37.8549 52.1872C38.2949 51.7145 38.5821 51.1552 38.7487 50.5713L39.9857 51.713C40.7515 52.4192 41.7312 52.7704 42.6984 52.7697C43.7637 52.7704 44.8401 52.3442 45.6241 51.505L46.131 50.9595C46.7164 50.3342 47.0459 49.5595 47.1476 48.7684C47.4741 48.852 47.805 48.9088 48.1387 48.9088C49.2041 48.9088 50.2775 48.4833 51.0622 47.6449L51.5706 47.0994C52.2811 46.3379 52.6346 45.3613 52.6331 44.3984C52.6331 44.0995 52.5902 43.8022 52.524 43.5083C53.4076 43.3912 54.2644 42.997 54.9159 42.2974L55.4256 41.7513C56.1361 40.9898 56.4881 40.0132 56.4881 39.0495C56.4895 37.9893 56.062 36.9194 55.2184 36.1399L54.265 35.2593L62.8697 25.7455C63.6422 24.889 63.9986 23.7865 64 22.7008ZM7.75174 39.4127C7.29586 39.4113 6.84999 39.2483 6.50161 38.9182L5.96124 38.4055C5.58736 38.052 5.40274 37.5817 5.40124 37.0987C5.40274 36.6457 5.56486 36.2034 5.89874 35.855L11.3457 30.1709C11.7006 29.8007 12.1741 29.6153 12.6599 29.6147C13.1144 29.6154 13.5587 29.779 13.91 30.1099L14.4481 30.6233C14.4481 30.6233 15.0052 31.4472 15.0066 31.9308C15.0052 32.2929 14.8961 32.6457 14.6845 32.9512C14.6664 32.9693 8.80549 39.0774 8.80549 39.0774C8.49424 39.2977 8.12624 39.411 7.75174 39.4127ZM12.102 45.0823C11.7479 45.451 11.2751 45.6357 10.7894 45.6372C10.3335 45.6364 9.88899 45.4728 9.53924 45.1427L8.99811 44.6284L8.99674 44.6277C8.62586 44.2757 8.43961 43.8038 8.43961 43.3208C8.43961 42.8678 8.60324 42.4255 8.93549 42.0772C8.93549 42.0772 16.1962 34.519 16.2574 34.4462C16.6044 34.1124 17.0515 33.94 17.5132 33.9393C17.9691 33.94 18.4136 34.1029 18.7634 34.4338L19.3045 34.9487C19.6767 35.3007 19.8616 35.7719 19.863 36.2555C19.8615 36.7085 19.698 37.1514 19.3655 37.4998L12.102 45.0823ZM18.0529 48.2958C17.6995 48.6654 17.2269 48.8503 16.741 48.8517C16.2851 48.8509 15.8406 48.6873 15.4909 48.3564L14.9482 47.8422C14.576 47.4894 14.3897 47.0183 14.3897 46.5353C14.3897 46.131 14.5272 45.7389 14.7904 45.4124L19.8469 40.1348C20.188 39.8272 20.6155 39.665 21.0585 39.665C21.5144 39.6658 21.9589 39.8287 22.3086 40.1595L22.8512 40.6744C23.2221 41.0264 23.4084 41.4977 23.4097 41.9805C23.4082 42.4344 23.2432 42.8773 22.9122 43.2248L18.0529 48.2958ZM27.6606 47.7388L24.5924 50.941C24.2389 51.3104 23.7655 51.4953 23.2797 51.4967C22.8239 51.4959 22.3794 51.3323 22.0296 51.0014L21.4885 50.4872C21.1176 50.1352 20.9314 49.6633 20.93 49.1803C20.9314 48.7264 21.095 48.2835 21.4275 47.9367L24.4944 44.7345C24.8492 44.3652 25.3227 44.1797 25.8085 44.1789C26.263 44.1797 26.7089 44.3425 27.0586 44.6742L27.6012 45.1884C27.9721 45.5404 28.1569 46.0117 28.1584 46.4945C28.1566 46.9483 27.993 47.3912 27.6606 47.7388ZM54.3154 39.0524C54.3147 39.4972 54.1554 39.9328 53.8325 40.2789L53.3241 40.8244C52.9692 41.204 52.4877 41.396 51.9947 41.3968C51.5475 41.396 51.1096 41.2389 50.7621 40.9177L42.1952 32.995L40.7139 34.5812L49.8836 43.076C50.2655 43.4295 50.4574 43.9095 50.4602 44.3997C50.4574 44.8462 50.2995 45.281 49.9774 45.6273L49.4705 46.1728C49.1156 46.5524 48.6341 46.7437 48.1411 46.7452C47.6939 46.7438 47.2546 46.5859 46.9099 46.2667L38.3407 38.3442L36.8609 39.9303L44.4656 46.9628C44.8321 47.314 45.0199 47.7817 45.0199 48.2615C45.0199 48.7067 44.862 49.1422 44.5399 49.4877L44.0315 50.0332C43.678 50.4128 43.1951 50.6048 42.7007 50.6062C42.252 50.6048 41.8142 50.4469 41.4681 50.1277L33.8786 43.1207H33.8772L33.8759 43.1193L32.3989 44.7083L32.4004 44.7097L32.4287 44.7365L36.23 48.2448C36.5667 48.5909 36.7412 49.0345 36.7426 49.4934C36.7412 49.9363 36.5847 50.3697 36.2626 50.7153L35.7542 51.2614C35.3994 51.641 34.9194 51.8315 34.4277 51.833C33.9805 51.8317 33.5426 51.6745 33.1965 51.3539L29.8869 48.2893C30.1749 47.7243 30.3356 47.1112 30.3356 46.4959C30.337 45.4523 29.9225 44.4 29.103 43.6227L28.5604 43.1078C27.7917 42.3783 26.7946 42.014 25.8107 42.0154C25.7344 42.0154 25.6574 42.0329 25.5825 42.0373C25.5825 42.0192 25.5867 42.0002 25.5867 41.982C25.5881 40.9384 24.3541 39.1073 24.3541 39.1073L23.813 38.5939C23.2377 38.0484 22.5359 37.7082 21.8059 37.5714C21.9564 37.1453 22.0415 36.7017 22.0415 36.2573C22.0415 35.2137 21.6284 34.1605 20.8089 33.384L20.2677 32.8692C19.4975 32.139 18.5006 31.7747 17.5166 31.7754C17.4017 31.7754 17.2884 31.7987 17.1741 31.8089C17.1429 30.8068 16.7392 29.8054 15.9539 29.0593V29.0585L15.4142 28.5459C14.644 27.815 13.6471 27.4507 12.6631 27.4514C11.6136 27.4507 10.557 27.8623 9.77536 28.6783L8.48961 30.02L2.79386 25.162C2.38449 24.8115 2.18011 24.3272 2.17861 23.8298C2.17999 23.413 2.32186 23.005 2.62436 22.6663L8.63424 15.9357C8.87274 15.668 9.22549 15.4259 9.63861 15.2578C10.0517 15.0898 10.5207 14.9975 10.9592 14.9982C11.3411 14.9982 11.6995 15.0673 11.9861 15.1909L15.2856 16.5988C16.2157 16.9908 17.2956 17.1515 18.3809 17.155C19.4674 17.1514 20.5459 16.9907 21.4761 16.5988L24.7741 15.1915C25.2825 14.9698 26.0496 14.8323 26.8125 14.8352C27.6561 14.83 28.5011 15.0047 28.9912 15.2548C29.3025 15.4097 29.5977 15.5567 29.8719 15.694L26.5084 18.0584C25.4276 18.8184 24.8451 20.027 24.8466 21.2467C24.8452 22.0539 25.1011 22.8757 25.6219 23.573L25.6205 23.5715L26.0647 24.1685C26.9084 25.29 28.2239 25.8667 29.5387 25.8695C30.2812 25.8695 31.0376 25.6819 31.7117 25.2775L33.7232 24.0695C34.1335 23.8187 34.753 23.6602 35.3936 23.663C36.1464 23.6587 36.9049 23.8813 37.3609 24.2164L42.9257 28.206C44.1642 29.0933 46.1815 30.739 47.2994 31.7747L53.7405 37.73C54.1219 38.0837 54.3139 38.5615 54.3154 39.0524ZM61.2547 24.2978L52.674 33.786L48.7781 30.1848C47.5579 29.0583 45.5456 27.4155 44.1959 26.446L38.6325 22.4564C37.6892 21.7882 36.5344 21.4993 35.3926 21.495C34.421 21.4979 33.4421 21.7097 32.5971 22.2128L30.5871 23.4208C30.2787 23.6062 29.9152 23.7008 29.5376 23.7015C28.8626 23.7038 28.1871 23.3888 27.8105 22.876L27.3676 22.2798L27.3661 22.2783C27.1305 21.9605 27.0207 21.6042 27.0191 21.2434C27.022 20.6979 27.2736 20.1685 27.761 19.8245L33.7084 15.6458C34.2226 15.2735 35.1375 15.0124 36.0065 15.0189C36.6101 15.016 37.1867 15.1374 37.5816 15.3324L42.4235 17.6778C43.249 18.0742 44.1806 18.2363 45.1179 18.2385C46.3221 18.2327 47.5395 17.9709 48.5425 17.3549L53.4885 14.278C53.8041 14.081 54.183 13.9792 54.578 13.9792C55.2456 13.9778 55.9146 14.2803 56.2935 14.774L61.3645 21.2625C61.6569 21.6342 61.8262 22.1584 61.8262 22.7018C61.8271 23.3094 61.6125 23.9073 61.2547 24.2978Z" fill="#29939B"/>
</g>
</g>
<defs>
<clipPath id="clip0">
<rect width="64" height="64" fill="white" transform="translate(0 0.904541)"/>
</clipPath>
<clipPath id="clip1">
<rect width="64" height="64" fill="white" transform="translate(0 0.904541)"/>
</clipPath>
</defs>
</svg>
