<svg width="32" height="32" viewBox="0 0 32 32" fill="none" xmlns="http://www.w3.org/2000/svg">
<path fill-rule="evenodd" clip-rule="evenodd" d="M23.3378 0H8.66209C3.88573 0 0 3.88573 0 8.66209V23.3381C0 28.1142 3.88573 31.9999 8.66209 31.9999H23.3381C28.1142 31.9999 31.9999 28.1142 31.9999 23.3381V8.66209C31.9999 3.88573 28.1142 0 23.3378 0ZM30.124 23.3381C30.124 27.0798 27.0798 30.124 23.3378 30.124H8.66209C4.92016 30.124 1.87597 27.0798 1.87597 23.3381V8.66209C1.87597 4.92016 4.92016 1.87597 8.66209 1.87597H23.3381C27.0798 1.87597 30.124 4.92016 30.124 8.66209V23.3381ZM16 7.25023C11.1753 7.25023 7.25023 11.1753 7.25023 16C7.25023 20.8247 11.1753 24.7497 16 24.7497C20.8247 24.7497 24.7497 20.8247 24.7497 16C24.7497 11.1753 20.8247 7.25023 16 7.25023ZM16 22.8737C12.2099 22.8737 9.1262 19.7902 9.1262 16C9.1262 12.2099 12.2099 9.12621 16 9.12621C19.7902 9.12621 22.8737 12.2099 22.8737 16C22.8737 19.7902 19.7902 22.8737 16 22.8737ZM22.3735 6.72826C22.3735 5.30272 23.5332 4.14281 24.9589 4.14281C26.3847 4.14281 27.5446 5.30248 27.5446 6.72826C27.5446 8.15404 26.3847 9.31395 24.9589 9.31395C23.5332 9.31395 22.3735 8.15404 22.3735 6.72826ZM24.2495 6.72826C24.2495 7.11937 24.5678 7.43773 24.9589 7.43773C25.3503 7.43773 25.6687 7.11937 25.6687 6.72826C25.6687 6.3369 25.3503 6.01879 24.9589 6.01879C24.5678 6.01879 24.2495 6.3369 24.2495 6.72826Z" fill="#34495E"/>
</svg>
