<svg width="148" height="148" viewBox="0 0 148 148" fill="none" xmlns="http://www.w3.org/2000/svg">
<circle cx="74" cy="74" r="73" stroke="#4A3598" stroke-width="2"/>
<path fill-rule="evenodd" clip-rule="evenodd" d="M109.802 65.0124L109.803 65.0133C110.564 65.716 111 66.7112 111 67.7467V106.75C111 110.213 108.183 113.029 104.721 113.029H53.2775C52.6373 113.029 52.1185 112.511 52.1185 111.87C52.1185 111.23 52.6373 110.712 53.2775 110.712H104.721C106.905 110.712 108.682 108.935 108.682 106.75V67.7487L78.2845 96.1176C77.0834 97.2386 75.5417 97.7992 74.0002 97.7992C72.4585 97.7992 70.9172 97.2387 69.716 96.1175L39.3178 67.7484V106.75C39.3178 108.934 41.0948 110.711 43.2791 110.711H48.6416C49.2818 110.711 49.8006 111.23 49.8006 111.87C49.8006 112.511 49.2818 113.029 48.6416 113.029H43.2792C39.8169 113.029 37 110.212 37 106.75V67.7465C37 66.7109 37.4365 65.7155 38.1978 65.0132C38.1987 65.0124 38.1995 65.0113 38.2004 65.0106L38.2058 65.0055L38.2084 65.003L38.2092 65.0024L49.8006 54.1846V42.7489C49.8006 40.6982 51.4687 39.0298 53.5195 39.0298H66.039L69.7159 35.5983C72.1185 33.3562 75.8821 33.3563 78.2841 35.5983L81.961 39.0298H94.4805C96.5311 39.0298 98.1995 40.6981 98.1995 42.7489V44.4835C98.1995 45.1237 97.6807 45.6424 97.0405 45.6424C96.4003 45.6424 95.8815 45.1237 95.8815 44.4835V42.7489C95.8815 41.9762 95.253 41.3477 94.4805 41.3477H53.5193C52.7468 41.3477 52.1184 41.9762 52.1184 42.7489V76.5237L71.2975 94.4229C72.813 95.8375 75.1873 95.8375 76.7028 94.4229L95.8816 76.524V49.1192C95.8816 48.479 96.4004 47.9603 97.0406 47.9603C97.6809 47.9603 98.1996 48.479 98.1996 49.1192V54.1843L109.791 65.0025C109.792 65.0028 109.792 65.003 109.792 65.0031L109.794 65.0047L109.794 65.0053L109.8 65.0106L109.802 65.0124ZM76.7027 37.2928C75.1872 35.8783 72.8128 35.8783 71.2973 37.2928L69.4363 39.0296H78.5637L76.7027 37.2928ZM49.8003 74.3603L40.6897 65.858L49.8003 57.3553V74.3603ZM107.31 65.858L98.1996 57.3551V74.3609L107.31 65.858ZM105.88 104.191C105.88 106.241 104.212 107.91 102.161 107.91H91.9204C89.8698 107.91 88.2015 106.241 88.2015 104.191C88.2015 102.14 89.8698 100.472 91.9204 100.472H102.161C104.211 100.472 105.88 102.14 105.88 104.191ZM91.9204 102.789C91.1479 102.789 90.5194 103.418 90.5194 104.19C90.5194 104.963 91.1479 105.592 91.9204 105.592H102.161C102.933 105.592 103.562 104.963 103.562 104.19C103.562 103.418 102.933 102.789 102.161 102.789H91.9204ZM73.9999 69.3744C71.9492 69.3744 70.281 71.0427 70.281 73.0934C70.281 75.144 71.9493 76.8123 73.9999 76.8123C76.0506 76.8123 77.7189 75.144 77.7189 73.0934C77.719 71.0427 76.0507 69.3744 73.9999 69.3744ZM73.9999 74.4945C73.2274 74.4945 72.599 73.866 72.599 73.0935C72.599 72.321 73.2274 71.6926 73.9999 71.6926C74.7724 71.6926 75.4009 72.321 75.4009 73.0935C75.4011 73.866 74.7724 74.4945 73.9999 74.4945ZM82.8178 51.9941C83.072 55.6742 81.0357 59.0963 77.7192 60.6331H77.719V62.8531C77.719 64.9037 76.0509 66.5722 74.0001 66.5722C71.9495 66.5722 70.281 64.9037 70.281 62.8531V60.2932C70.281 57.4762 71.9493 54.971 74.5312 53.9107C75.0916 53.6808 75.4394 53.116 75.3974 52.5059C75.3515 51.8402 74.7728 51.2613 74.1073 51.2154C73.7101 51.1888 73.3311 51.3208 73.0446 51.588C72.753 51.8601 72.5988 52.2144 72.5988 52.6128C72.5988 54.6634 70.9307 56.3318 68.8799 56.3318C66.8293 56.3318 65.161 54.6634 65.161 52.6128C65.161 50.1717 66.1847 47.8162 67.9697 46.1503C69.7544 44.4845 72.1782 43.6258 74.6196 43.795C78.9918 44.0968 82.5164 47.6215 82.8178 51.9941ZM75.4012 60.2932C75.4012 59.5616 75.8231 58.9155 76.4763 58.6472C79.0805 57.5777 80.6996 54.968 80.5055 52.1537C80.2833 48.9293 77.6843 46.3299 74.4603 46.1077C72.6574 45.983 70.8682 46.6161 69.5515 47.8449C68.2346 49.0742 67.4792 50.8121 67.4792 52.613C67.4792 53.3855 68.1077 54.014 68.8802 54.014C69.6527 54.014 70.2812 53.3855 70.2812 52.613C70.2812 51.5705 70.7012 50.6047 71.4636 49.8932C72.1598 49.2436 73.0528 48.8939 74.002 48.8939C74.0893 48.8939 74.1772 48.897 74.2656 48.903C76.073 49.0274 77.5852 50.5399 77.7101 52.3463C77.821 53.9546 76.8974 55.4451 75.4119 56.0548C73.7033 56.7567 72.5991 58.4202 72.5991 60.2932V62.8531C72.5991 63.6258 73.2276 64.2542 74.0003 64.2542C74.7728 64.2542 75.4012 63.6258 75.4012 62.8531V60.2932Z" fill="#34495E"/>
</svg>
