<svg width="148" height="148" viewBox="0 0 148 148" fill="none" xmlns="http://www.w3.org/2000/svg">
<circle cx="74" cy="74" r="73" stroke="#4A3598" stroke-width="2"/>
<path d="M77.6464 111H73.0566C70.8529 111 69.06 109.207 69.06 107.004V106.851C69.06 104.648 70.8529 102.855 73.0566 102.855H77.6461C79.4939 102.855 81.0526 104.115 81.508 105.821H92.5595C99.7992 105.821 105.689 99.9315 105.689 92.6918V87.8066H104.855V90.5346C104.855 92.6126 103.165 94.3029 101.087 94.3029H97.9576C97.4786 94.3029 97.0712 93.9987 96.917 93.5728H95.6164C94.0194 93.5728 92.7199 92.3367 92.7199 90.8175V73.2136C92.7199 71.6944 94.0194 70.4583 95.6164 70.4583H96.917C97.0712 70.0324 97.4786 69.7282 97.9576 69.7282H101.29C103.255 69.7282 104.855 71.3275 104.855 73.2937V76.2245H105.689V72.7177C105.689 54.2428 91.4735 39.2125 73.9998 39.2125C56.5265 39.2125 42.3108 54.2428 42.3108 72.7177V76.2245H43.1445V73.2937C43.1445 71.3275 44.7442 69.7282 46.71 69.7282H50.042C50.521 69.7282 50.9285 70.0324 51.0827 70.4583H52.3832C53.9803 70.4583 55.2798 71.6944 55.2798 73.2136V90.8175C55.2798 92.3367 53.9803 93.5728 52.3832 93.5728H51.0827C50.9285 93.9987 50.521 94.3029 50.042 94.3029H46.9128C44.8349 94.3029 43.1445 92.6126 43.1445 90.5346V87.8066H41.2045C40.5935 87.8066 40.0983 87.3114 40.0983 86.7004V72.7177C40.0983 53.023 55.3067 37 73.9998 37C92.6933 37 107.902 53.023 107.902 72.7177V92.6915C107.902 101.151 101.019 108.033 92.5599 108.033H81.5084C81.053 109.74 79.4939 111 77.6464 111ZM73.0566 105.067C72.0727 105.067 71.2725 105.867 71.2725 106.851V107.003C71.2725 107.987 72.0727 108.787 73.0566 108.787H77.6461C78.6299 108.787 79.4301 107.987 79.4301 107.003V106.851C79.4301 105.867 78.6299 105.067 77.6461 105.067H73.0566ZM99.197 92.09H101.087C101.945 92.09 102.643 91.392 102.643 90.5343V73.2937C102.643 72.5477 102.036 71.9407 101.29 71.9407H99.197V92.09ZM46.71 71.9407C45.964 71.9407 45.357 72.5477 45.357 73.2937V90.5343C45.357 91.3924 46.0551 92.09 46.9128 92.09H48.9358V71.9407H46.71ZM95.6164 72.6708C95.2455 72.6708 94.9324 72.9194 94.9324 73.2136V90.8175C94.9324 91.1117 95.2458 91.3603 95.6164 91.3603H96.9845V72.6708H95.6164ZM51.1483 91.3603H52.3836C52.7546 91.3603 53.0676 91.1117 53.0676 90.8175V73.2136C53.0676 72.9194 52.7542 72.6708 52.3836 72.6708H51.1483V91.3603ZM104.856 85.5937H105.689V78.437H104.856V85.5937ZM42.3108 85.5937H43.1445V78.437H42.3108V85.5937V85.5937Z" fill="#34495E"/>
</svg>
