<svg width="148" height="148" viewBox="0 0 148 148" fill="none" xmlns="http://www.w3.org/2000/svg">
<circle cx="74" cy="74" r="73" stroke="#4A3598" stroke-width="2"/>
<path fill-rule="evenodd" clip-rule="evenodd" d="M111 75.2333V47.175C110.999 46.4393 110.707 45.734 110.186 45.2137C109.666 44.6935 108.961 44.4009 108.225 44.4H94.9667V41.3167C94.9654 40.1722 94.5102 39.075 93.7009 38.2658C92.8917 37.4565 91.7944 37.0013 90.65 37H57.35C56.2055 37.0013 55.1083 37.4565 54.2991 38.2658C53.4898 39.075 53.0346 40.1722 53.0333 41.3167V44.4H49.3333V46.8667H108.225C108.307 46.8667 108.385 46.8992 108.443 46.957C108.501 47.0148 108.533 47.0932 108.533 47.175V54.2667H39.4667V47.175C39.4667 47.0932 39.4992 47.0148 39.557 46.957C39.6148 46.8992 39.6932 46.8667 39.775 46.8667H46.8667V44.4H39.775C39.0393 44.4009 38.334 44.6935 37.8137 45.2137C37.2935 45.734 37.0009 46.4393 37 47.175V95.8917C37.0009 96.6274 37.2935 97.3327 37.8137 97.8529C38.334 98.3732 39.0393 98.6658 39.775 98.6667H53.0333V106.683C53.0346 107.828 53.4898 108.925 54.2991 109.734C55.1083 110.543 56.2055 110.999 57.35 111H90.65C91.7944 110.999 92.8917 110.543 93.7009 109.734C94.5102 108.925 94.9654 107.828 94.9667 106.683V98.6667H108.225C108.961 98.6658 109.666 98.3732 110.186 97.8529C110.707 97.3327 110.999 96.6274 111 95.8917V77.7H108.533V95.8917C108.533 95.9734 108.501 96.0519 108.443 96.1097C108.385 96.1675 108.307 96.2 108.225 96.2H39.775C39.6932 96.2 39.6148 96.1675 39.557 96.1097C39.4992 96.0519 39.4667 95.9734 39.4667 95.8917V56.7333H108.533V75.2333H111ZM55.5 41.3167C55.5005 40.8262 55.6956 40.3559 56.0424 40.0091C56.3893 39.6623 56.8595 39.4672 57.35 39.4667H90.65C91.1405 39.4672 91.6107 39.6623 91.9576 40.0091C92.3044 40.3559 92.4995 40.8262 92.5 41.3167V44.4H55.5V41.3167ZM90.65 108.533H57.35C56.8595 108.533 56.3893 108.338 56.0424 107.991C55.6956 107.644 55.5005 107.174 55.5 106.683V104.833H92.5V106.683C92.4995 107.174 92.3044 107.644 91.9576 107.991C91.6107 108.338 91.1405 108.533 90.65 108.533ZM92.5 102.367H55.5V98.6667H92.5V102.367ZM83.25 93.7333H99.2833C100.428 93.732 101.525 93.2768 102.334 92.4676C103.143 91.6583 103.599 90.5611 103.6 89.4167V88.1833C103.599 87.0389 103.143 85.9417 102.334 85.1324C101.525 84.3232 100.428 83.868 99.2833 83.8667H83.25C82.1056 83.868 81.0083 84.3232 80.1991 85.1324C79.3899 85.9417 78.9346 87.0389 78.9333 88.1833V89.4167C78.9346 90.5611 79.3899 91.6583 80.1991 92.4676C81.0083 93.2768 82.1056 93.732 83.25 93.7333ZM81.4 88.1833C81.4005 87.6928 81.5956 87.2226 81.9424 86.8758C82.2893 86.5289 82.7595 86.3339 83.25 86.3333H99.2833C99.7738 86.3339 100.244 86.5289 100.591 86.8758C100.938 87.2226 101.133 87.6928 101.133 88.1833V89.4167C101.133 89.9071 100.938 90.3774 100.591 90.7242C100.244 91.0711 99.7738 91.2661 99.2833 91.2667H83.25C82.7595 91.2661 82.2893 91.0711 81.9424 90.7242C81.5956 90.3774 81.4005 89.9071 81.4 89.4167V88.1833ZM42.2946 59.5612C42.5259 59.3299 42.8396 59.2 43.1667 59.2H70.3C70.6271 59.2 70.9408 59.3299 71.1721 59.5612C71.4034 59.7925 71.5333 60.1062 71.5333 60.4333V92.5C71.5333 92.8271 71.4034 93.1408 71.1721 93.3721C70.9408 93.6034 70.6271 93.7333 70.3 93.7333H43.1667C42.8396 93.7333 42.5259 93.6034 42.2946 93.3721C42.0633 93.1408 41.9333 92.8271 41.9333 92.5V60.4333C41.9333 60.1062 42.0633 59.7925 42.2946 59.5612ZM69.0667 83.5312V61.6667H44.4V83.5312C44.8119 83.2368 45.2606 82.9976 45.7346 82.8197L52.0494 80.4517L52.7449 78.3654C52.0836 77.9879 51.5339 77.4424 51.1514 76.7841C50.7689 76.1258 50.5671 75.378 50.5667 74.6167V68.45C50.568 67.3055 51.0232 66.2083 51.8324 65.3991C52.6417 64.5898 53.7389 64.1346 54.8833 64.1333H58.5833C59.7278 64.1346 60.825 64.5898 61.6342 65.3991C62.4435 66.2083 62.8987 67.3055 62.9 68.45V74.6167C62.8995 75.378 62.6978 76.1258 62.3153 76.7841C61.9328 77.4424 61.383 77.9879 60.7218 78.3654L61.4172 80.4517L67.732 82.8197C68.2061 82.9976 68.6547 83.2368 69.0667 83.5312ZM59.8909 75.9242C60.2377 75.5774 60.4328 75.1071 60.4333 74.6167V68.45C60.4328 67.9595 60.2377 67.4893 59.8909 67.1424C59.5441 66.7956 59.0738 66.6005 58.5833 66.6H54.8833C54.3928 66.6005 53.9226 66.7956 53.5758 67.1424C53.2289 67.4893 53.0339 67.9595 53.0333 68.45V74.6167C53.0339 75.1071 53.2289 75.5774 53.5758 75.9242C53.9226 76.2711 54.3928 76.4661 54.8833 76.4667H58.5833C59.0738 76.4661 59.5441 76.2711 59.8909 75.9242ZM58.3111 78.9333H55.1556L54.4077 81.1769L56.7333 84.2778L59.0589 81.1769L58.3111 78.9333ZM45.0067 86.3751C44.6137 86.9422 44.4021 87.6152 44.4 88.3051V91.2667H69.0667V88.3051C69.0642 87.6154 68.8524 86.9427 68.4594 86.3759C68.0664 85.8091 67.5106 85.3749 66.8655 85.1308L60.865 82.88L57.72 87.0733C57.6051 87.2265 57.4562 87.3508 57.2849 87.4365C57.1136 87.5221 56.9248 87.5667 56.7333 87.5667C56.5419 87.5667 56.353 87.5221 56.1818 87.4365C56.0105 87.3508 55.8616 87.2265 55.7467 87.0733L52.6017 82.88L46.6007 85.1293C45.9555 85.3736 45.3996 85.808 45.0067 86.3751ZM78.9333 69.0667C79.9091 69.0667 80.8629 68.7773 81.6742 68.2352C82.4854 67.6932 83.1178 66.9227 83.4912 66.0212C83.8645 65.1198 83.9622 64.1279 83.7719 63.1709C83.5815 62.2139 83.1117 61.3349 82.4217 60.6449C81.7318 59.955 80.8528 59.4851 79.8958 59.2948C78.9388 59.1044 77.9469 59.2021 77.0454 59.5755C76.144 59.9489 75.3735 60.5812 74.8314 61.3925C74.2893 62.2038 74 63.1576 74 64.1333C74.0015 65.4413 74.5217 66.6952 75.4466 67.6201C76.3714 68.545 77.6254 69.0652 78.9333 69.0667ZM78.9333 61.6667C79.4212 61.6667 79.8981 61.8113 80.3037 62.0824C80.7094 62.3534 81.0255 62.7386 81.2122 63.1894C81.3989 63.6401 81.4478 64.1361 81.3526 64.6145C81.2574 65.093 81.0225 65.5326 80.6775 65.8775C80.3326 66.2225 79.893 66.4574 79.4146 66.5526C78.9361 66.6478 78.4401 66.5989 77.9894 66.4122C77.5387 66.2255 77.1534 65.9094 76.8824 65.5037C76.6113 65.0981 76.4667 64.6212 76.4667 64.1333C76.4674 63.4794 76.7276 62.8524 77.19 62.39C77.6524 61.9276 78.2794 61.6674 78.9333 61.6667ZM106.067 60.5152H101.133V62.9819H106.067V60.5152ZM86.3333 60.4333H98.6667V62.9H86.3333V60.4333ZM106.067 65.3667H96.2V67.8333H106.067V65.3667ZM86.3333 65.3667H93.7333V67.8333H86.3333V65.3667ZM81.6742 80.5686C80.8629 81.1107 79.9091 81.4 78.9333 81.4C77.6254 81.3985 76.3714 80.8783 75.4466 79.9534C74.5217 79.0286 74.0015 77.7746 74 76.4667C74 75.4909 74.2893 74.5371 74.8314 73.7258C75.3735 72.9146 76.144 72.2822 77.0454 71.9088C77.9469 71.5354 78.9388 71.4377 79.8958 71.6281C80.8528 71.8185 81.7318 72.2883 82.4217 72.9783C83.1117 73.6682 83.5815 74.5472 83.7719 75.5042C83.9622 76.4612 83.8645 77.4531 83.4912 78.3546C83.1178 79.256 82.4854 80.0265 81.6742 80.5686ZM80.3037 74.4157C79.8981 74.1446 79.4212 74 78.9333 74C78.2794 74.0008 77.6524 74.2609 77.19 74.7233C76.7276 75.1857 76.4674 75.8127 76.4667 76.4667C76.4667 76.9545 76.6113 77.4314 76.8824 77.8371C77.1534 78.2427 77.5387 78.5589 77.9894 78.7456C78.4401 78.9323 78.9361 78.9811 79.4146 78.8859C79.893 78.7908 80.3326 78.5558 80.6775 78.2109C81.0225 77.8659 81.2574 77.4264 81.3526 76.9479C81.4478 76.4694 81.3989 75.9734 81.2122 75.5227C81.0255 75.072 80.7094 74.6867 80.3037 74.4157ZM101.133 72.7667H106.067V75.2333H101.133V72.7667ZM98.6667 72.7667H86.3333V75.2333H98.6667V72.7667ZM96.2 77.7H106.067V80.1667H96.2V77.7ZM93.7333 77.7H86.3333V80.1667H93.7333V77.7ZM41.9333 49.3333H44.4V51.8H41.9333V49.3333ZM49.3333 49.3333H46.8667V51.8H49.3333V49.3333ZM51.8 49.3333H54.2667V51.8H51.8V49.3333ZM106.067 49.3333H103.6V51.8H106.067V49.3333Z" fill="#34495E"/>
</svg>
