<svg width="148" height="149" viewBox="0 0 148 149" fill="none" xmlns="http://www.w3.org/2000/svg">
<circle cx="74" cy="74.2437" r="73" stroke="#4A3598" stroke-width="2"/>
<path d="M69.6187 82.558C70.042 82.9813 70.7284 82.9813 71.1516 82.558L80.8342 72.8754V75.1546C80.8342 75.7533 81.3194 76.2386 81.9181 76.2386C82.5169 76.2386 83.0021 75.7533 83.0021 75.1546V71.1537C83.0021 70.5632 82.6496 70.0356 82.1039 69.8096C81.5587 69.5837 80.9361 69.7074 80.5185 70.1251L69.6185 81.0251C69.1953 81.4484 69.1953 82.1348 69.6187 82.558V82.558ZM74 43.1347C74.5986 43.1347 75.084 42.6494 75.084 42.0508C75.084 41.4521 74.5986 40.9668 74 40.9668C73.4014 40.9668 72.916 41.4521 72.916 42.0508C72.916 42.6494 73.4014 43.1347 74 43.1347ZM65.896 78.6777C66.4357 78.9013 67.0616 78.7822 67.4814 78.3622L78.3815 67.4622C78.8048 67.0389 78.8048 66.3525 78.3815 65.9293C77.958 65.506 77.2718 65.506 76.8484 65.9293L67.166 75.6119V73.3327C67.166 72.734 66.6806 72.2487 66.082 72.2487C65.4834 72.2487 64.998 72.734 64.998 73.3327V77.3336C64.9979 77.9241 65.3504 78.4517 65.896 78.6777V78.6777ZM52.5357 81.0832C53.2606 81.0832 53.8503 81.7869 53.8503 82.6518C53.8503 83.2504 54.3357 83.7357 54.9343 83.7357C55.533 83.7357 56.0183 83.2504 56.0183 82.6518C56.0183 80.5915 54.4561 78.9152 52.5357 78.9152H52.0206V77.9909C52.0206 77.3923 51.5352 76.9069 50.9366 76.9069C50.3379 76.9069 49.8526 77.3923 49.8526 77.9909V78.9152H49.3376C47.4172 78.9152 45.855 80.5915 45.855 82.6518V84.4201C45.855 86.4805 47.4174 88.1568 49.3378 88.1568H49.8526V93.0625H49.3376C48.6128 93.0625 48.023 92.3588 48.023 91.4939C48.023 90.8952 47.5376 90.4099 46.939 90.4099C46.3403 90.4099 45.855 90.8952 45.855 91.4939C45.855 93.5542 47.4172 95.2305 49.3376 95.2305H49.8526V96.1547C49.8526 96.7534 50.3379 97.2387 50.9366 97.2387C51.5352 97.2387 52.0206 96.7534 52.0206 96.1547V95.2305H52.5357C54.4561 95.2305 56.0183 93.5542 56.0183 91.4939V89.7254C56.0183 87.665 54.4559 85.9887 52.5355 85.9887H52.0206V81.0832H52.5357ZM49.8526 85.9887H49.3376C48.6127 85.9887 48.023 85.285 48.023 84.42V82.6516C48.023 81.7867 48.6128 81.083 49.3376 81.083H49.8526V85.9887ZM52.5357 88.1567C53.2606 88.1567 53.8503 88.8604 53.8503 89.7254V91.4939C53.8503 92.3588 53.2606 93.0625 52.5357 93.0625H52.0206V88.1568L52.5357 88.1567ZM97.3418 47.7566V44.1089C97.3418 40.3235 94.262 37.2437 90.4766 37.2437H57.5234C53.738 37.2437 50.6582 40.3235 50.6582 44.1089V73.4148C43.1017 73.5607 37 79.6311 37 87.0728C37 94.5146 43.1017 100.585 50.6582 100.731V104.378C50.6582 108.164 53.738 111.244 57.5234 111.244H90.4766C94.262 111.244 97.3418 108.164 97.3418 104.378V75.0725C104.898 74.9266 111 68.8562 111 61.4145C111 53.9727 104.898 47.9025 97.3418 47.7566V47.7566ZM50.9366 98.5662C44.4474 98.5662 39.168 93.4102 39.168 87.0728C39.168 80.7353 44.4474 75.5793 50.9366 75.5793C57.4259 75.5793 62.7053 80.7353 62.7053 87.0728C62.7053 88.0136 62.5881 88.9493 62.3571 89.8539C62.209 90.4339 62.5591 91.0243 63.1392 91.1725C63.7191 91.3207 64.3096 90.9707 64.4578 90.3904C64.7335 89.3106 64.8734 88.1945 64.8734 87.0728C64.8734 81.732 61.7302 77.0979 57.1623 74.8526V44.8315C57.1623 44.2338 57.6485 43.7476 58.2462 43.7476H62.2281C62.2485 43.7476 62.2668 43.7555 62.2797 43.7682C62.2982 43.7867 62.3003 43.8065 62.3003 43.8198C62.3003 45.4949 63.6633 46.8579 65.3384 46.8579H69.6626C70.2613 46.8579 70.7466 46.3725 70.7466 45.7739C70.7466 45.1752 70.2613 44.6899 69.6626 44.6899H65.3382C64.8585 44.6899 64.4682 44.2995 64.4682 43.8198C64.4682 43.2207 64.2353 42.6581 63.8098 42.2326C63.3858 41.8114 62.8238 41.5796 62.2279 41.5796H58.2461C56.4529 41.5796 54.9941 43.0383 54.9941 44.8315V74.0024C54.2932 73.7929 53.5689 73.6365 52.8262 73.5373V44.1089C52.8262 41.5189 54.9334 39.4116 57.5234 39.4116H90.4766C93.0667 39.4116 95.1738 41.5189 95.1738 44.1089V47.8791C94.4311 47.9783 93.7068 48.1348 93.0059 48.3442V44.8315C93.0059 43.0383 91.547 41.5796 89.7539 41.5796H85.7721C84.5368 41.5796 83.5318 42.5845 83.5318 43.8198C83.5318 44.2995 83.1415 44.6899 82.6616 44.6899H74.7211C74.1224 44.6899 73.6371 45.1752 73.6371 45.7739C73.6371 46.3725 74.1224 46.8579 74.7211 46.8579H82.6616C84.3369 46.8579 85.6998 45.4949 85.6998 43.8198C85.6998 43.7799 85.7323 43.7476 85.7721 43.7476H89.7539C90.3517 43.7476 90.8379 44.2338 90.8379 44.8315V49.1944C86.27 51.4395 83.1267 56.0736 83.1267 61.4145C83.1267 66.7553 86.27 71.3894 90.8379 73.6347V103.656C90.8379 104.254 90.3517 104.74 89.7539 104.74H58.2461C57.6483 104.74 57.1621 104.254 57.1621 103.656V99.2825C59.0916 98.3351 60.8011 96.9525 62.1185 95.219C62.4807 94.7424 62.3881 94.0624 61.9114 93.7002C61.4349 93.338 60.7547 93.4306 60.3925 93.9073C58.1754 96.8245 54.6406 98.5662 50.9366 98.5662V98.5662ZM95.1738 104.378C95.1738 106.968 93.0667 109.076 90.4766 109.076H57.5234C54.9334 109.076 52.8262 106.968 52.8262 104.378V100.605C53.5627 100.504 54.2877 100.347 54.9941 100.134V103.656C54.9941 105.449 56.4529 106.908 58.2461 106.908H89.7539C91.547 106.908 93.0059 105.449 93.0059 103.656V74.4849C93.7068 74.6944 94.4311 74.8508 95.1738 74.95V104.378ZM97.0633 72.908C90.5741 72.908 85.2947 67.752 85.2947 61.4145C85.2947 55.0769 90.574 49.9211 97.0633 49.9211C103.553 49.9211 108.832 55.0771 108.832 61.4145C108.832 67.752 103.553 72.908 97.0633 72.908ZM98.6625 55.425C99.3873 55.425 99.977 56.1287 99.977 56.9936C99.977 57.5922 100.462 58.0775 101.061 58.0775C101.66 58.0775 102.145 57.5922 102.145 56.9936C102.145 54.9333 100.583 53.257 98.6625 53.257H98.1474V52.3327C98.1474 51.7341 97.6622 51.2487 97.0634 51.2487C96.4646 51.2487 95.9794 51.7341 95.9794 52.3327V53.257H95.4645C93.5442 53.257 91.9819 54.9333 91.9819 56.9936V58.7619C91.9819 59.7397 92.3308 60.6639 92.9644 61.3646C93.6256 62.0958 94.5136 62.4985 95.4645 62.4985H95.9794V67.4041H95.4645C94.7395 67.4041 94.1498 66.7004 94.1498 65.8355C94.1498 65.2369 93.6646 64.7516 93.0658 64.7516C92.467 64.7516 91.9819 65.2369 91.9819 65.8355C91.9819 67.8958 93.5442 69.5721 95.4645 69.5721H95.9794V70.4964C95.9794 71.095 96.4646 71.5804 97.0634 71.5804C97.6622 71.5804 98.1474 71.095 98.1474 70.4964V69.5721H98.6625C100.583 69.5721 102.145 67.8958 102.145 65.8355V64.0671C102.145 63.0893 101.796 62.165 101.162 61.4643C100.501 60.733 99.6134 60.3304 98.6624 60.3305H98.1474V55.425H98.6625ZM95.9793 60.3305H95.4643C95.1339 60.3305 94.8171 60.1813 94.5723 59.9105C94.2997 59.6091 94.1497 59.2013 94.1497 58.7619V56.9936C94.1497 56.1287 94.7394 55.425 95.4643 55.425H95.9793V60.3305ZM98.6624 62.4985C98.9928 62.4985 99.3096 62.6476 99.5544 62.9183C99.827 63.2197 99.977 63.6277 99.977 64.0671V65.8355C99.977 66.7004 99.3873 67.4041 98.6625 67.4041H98.1474V62.4985H98.6624Z" fill="#34495E"/>
</svg>
