<svg width="148" height="149" viewBox="0 0 148 149" fill="none" xmlns="http://www.w3.org/2000/svg">
<circle cx="74" cy="74.741" r="73" stroke="#4A3598" stroke-width="2"/>
<path fill-rule="evenodd" clip-rule="evenodd" d="M109.916 44.4646C110.515 44.4646 111 43.9792 111 43.3806V38.8257C111.001 38.2353 110.506 37.741 109.916 37.741H105.256C104.657 37.741 104.172 38.2263 104.172 38.825C104.172 39.4236 104.657 39.9089 105.256 39.9089H107.299L92.6866 54.5215L86.2993 48.1341C85.8813 47.7162 85.1843 47.7162 84.7663 48.1341L78.3304 54.5699C75.2317 48.5364 71.0868 42.6429 66.0732 38.0276C65.5824 37.646 65.0912 37.6456 64.5998 38.0263C55.5489 46.4522 48.5703 58.486 47.3349 70.8583L42.6669 76.8605C42.1629 75.9049 41.1596 75.2516 40.0063 75.2516C38.3486 75.2516 37 76.6002 37 78.2579V90.12C37 91.7778 38.3488 93.1264 40.0065 93.1262C41.6642 93.1262 43.0128 91.7776 43.0128 90.12V89.2483L50.5049 86.0004C51.5603 86.0661 52.6324 86.0448 53.6998 86.0236C54.2254 86.0131 54.7498 86.0027 55.2705 86.0027C54.1635 87.6534 53.2189 89.589 52.4937 91.708C52.2567 92.4005 52.7873 93.143 53.5193 93.143H57.3302C57.0368 94.0158 56.8842 94.9358 56.8842 95.8677C56.8842 100.172 63.6594 110.148 64.432 111.271C64.8559 111.888 65.7944 111.888 66.2183 111.271C66.991 110.148 73.7663 100.172 73.7663 95.8677C73.7663 94.9358 73.6137 94.0158 73.3203 93.143H77.1311C77.8626 93.143 78.3933 92.4017 78.1572 91.7093C77.4341 89.5877 76.4935 87.6518 75.3923 86.0029C75.9135 86.0029 76.4369 86.011 76.9611 86.019L76.9617 86.0191H76.9618H76.9618H76.9619H76.962H76.9621C78.0251 86.0355 79.091 86.0519 80.1468 86.0011L87.6377 89.2485V90.1201C87.6377 91.7778 88.9862 93.1264 90.6438 93.1264C92.3016 93.1267 93.6503 91.7779 93.6503 90.1201V80.1823H99.0039C100.36 80.1823 100.422 78.0143 99.0039 78.0143H93.6393C93.3705 75.0147 89.3848 74.2252 87.9833 76.8607L83.3082 70.8493C83.0484 68.0026 82.4551 65.1895 81.5992 62.4636L85.5327 58.5302L91.92 64.9176C92.338 65.3355 93.0351 65.3355 93.453 64.9176L108.832 49.5383V78.0142H105.256C103.9 78.0142 103.838 80.1822 105.256 80.1822H109.916C110.515 80.1822 111 79.6968 111 79.0982V46.9213C111 45.9743 109.819 45.4857 109.149 46.1549L92.6866 62.6178L86.2993 56.2304C85.876 55.8071 85.1896 55.8069 84.7664 56.2304L80.8158 60.1808C80.376 58.9991 79.8823 57.8151 79.3355 56.6308L85.5329 50.4334L91.9201 56.8208C92.3381 57.2387 93.0352 57.2387 93.4532 56.8208L108.832 41.442V43.3806C108.832 43.9792 109.317 44.4646 109.916 44.4646ZM40.8448 90.12C40.8096 91.228 39.2029 91.2274 39.168 90.12V78.2579C39.2032 77.1499 40.8098 77.1505 40.8448 78.2579V90.12ZM89.8054 78.2579C89.8406 77.15 91.4471 77.1503 91.4821 78.2579V90.12C91.4821 90.5822 91.106 90.9583 90.6439 90.9583H90.6435C90.1814 90.9583 89.8054 90.5822 89.8054 90.12V78.2579ZM82.9922 79.7319C83.2779 78.035 83.4312 76.312 83.4544 74.5684L87.6375 79.9473V86.8852L81.6152 84.2746C82.2656 82.8238 82.7281 81.301 82.9922 79.7319ZM65.3345 40.3424C66.8499 41.8696 70.459 45.736 73.8397 51.0853H56.8064C60.1971 45.7337 63.8156 41.8685 65.3345 40.3424ZM43.0128 86.8852V79.9473L47.1968 74.5671C47.2239 76.3123 47.382 78.0369 47.6735 79.7353C47.9423 81.3031 48.4048 82.8223 49.0504 84.2679L43.0128 86.8852ZM65.3251 108.708C62.9978 105.15 59.0521 98.556 59.0521 95.8676C59.0521 94.9199 59.2623 93.9891 59.6631 93.1429H70.9874C71.3882 93.9891 71.5983 94.9197 71.5983 95.8676C71.5982 98.556 67.6522 105.15 65.3251 108.708ZM75.5685 90.9749H55.0843C55.869 89.0669 56.8472 87.3753 57.9605 86.0027H72.7059C73.813 87.3727 74.7864 89.0642 75.5685 90.9749ZM79.4053 62.7202C81.6156 69.3933 82.5175 77.4575 79.4295 83.8348H51.2384C48.3807 77.9114 49.0327 70.3654 50.7733 64.2204C51.7999 60.5958 53.3839 56.9145 55.4899 53.2534H75.1469C76.8733 56.2595 78.315 59.4282 79.4053 62.7202ZM65.3251 57.3736C64.1298 57.3736 62.9481 57.5667 61.8126 57.9474C61.245 58.1377 60.9392 58.7521 61.1295 59.3198C61.3197 59.8873 61.9335 60.1932 62.5018 60.0029C68.1601 58.0124 74.3638 62.5242 74.2658 68.5528C74.2659 73.5215 70.2551 77.5639 65.325 77.5639C57.8472 77.5954 53.6507 68.6616 58.3837 62.875C59.2461 61.7264 57.6349 60.4287 56.6961 61.5141C50.8351 68.7167 56.03 79.7639 65.3251 79.7318C80.0615 79.1192 80.0583 57.9847 65.3251 57.3736ZM72.6985 68.5527C72.6985 72.6428 69.3908 75.9702 65.3251 75.9702C61.2594 75.9702 57.9517 72.6426 57.9518 68.5527C58.356 58.715 72.293 58.7123 72.6985 68.5527ZM70.5305 68.5527C70.5305 65.658 68.1954 63.3032 65.3251 63.3032C62.4547 63.3032 60.1197 65.658 60.1198 68.5527C60.4051 75.5152 70.2441 75.5172 70.5305 68.5527ZM46.1696 93.9579C45.5709 93.9579 45.0857 94.4432 45.0857 95.0419V101.934C45.0857 102.533 45.5709 103.018 46.1696 103.018C46.7684 103.018 47.2536 102.533 47.2536 101.934V95.0419C47.2536 94.4432 46.7684 93.9579 46.1696 93.9579ZM49.5499 101.006C49.5499 100.407 50.0351 99.9221 50.6339 99.9221C51.2327 99.9221 51.7179 100.407 51.7179 101.006V110.657C51.7179 111.256 51.2327 111.741 50.6339 111.741C50.0351 111.741 49.5499 111.256 49.5499 110.657V101.006ZM84.4804 93.9579C83.8816 93.9579 83.3964 94.4432 83.3964 95.0419V101.934C83.3964 102.533 83.8816 103.018 84.4804 103.018C85.0792 103.018 85.5644 102.533 85.5644 101.934V95.0419C85.5644 94.4432 85.079 93.9579 84.4804 93.9579ZM78.9321 101.006C78.9321 100.407 79.4173 99.9221 80.0161 99.9221C80.6149 99.9221 81.1001 100.407 81.1001 101.006V110.657C81.1001 111.256 80.6149 111.741 80.0161 111.741C79.4173 111.741 78.9321 111.256 78.9321 110.657V101.006Z" fill="#34495E"/>
</svg>
