<svg width="96" height="96" viewBox="0 0 96 96" fill="none" xmlns="http://www.w3.org/2000/svg">
<path fill-rule="evenodd" clip-rule="evenodd" d="M75.6577 13.7373H75.2H68.8H68.3423H52.8003H51.2V16.9373H52.8003H67.1997H76.8003H91.1997H92.8V13.7373H91.1997H75.6577ZM75.2 20.1372H68.8V39.3376H75.2V20.1372ZM78.3999 39.3376V20.1372H89.6001V39.3376H78.3999ZM76.8003 42.5376H91.1997C92.083 42.5376 92.8 41.8206 92.8 40.9373V20.1372H94.3997C95.283 20.1372 96 19.4209 96 18.5376V12.1377C96 11.2544 95.283 10.5374 94.3997 10.5374H92.8V9.8606C92.8 7.03638 91.5088 4.37256 89.3459 2.7356C87.7683 1.54248 85.9314 0.9375 83.8865 0.9375C79.5806 0.9375 77.0262 2.69917 75.6486 4.15825C75.5009 4.14449 75.3512 4.13745 75.2 4.13745H68.8C68.6487 4.13745 68.499 4.14449 68.3512 4.15827C66.9743 2.6985 64.4201 0.9375 60.115 0.9375C58.0701 0.9375 56.2339 1.54248 54.6541 2.7356C52.4912 4.37256 51.2 7.03491 51.2 9.8606V10.5374H49.6003C48.717 10.5374 48 11.2544 48 12.1377V18.5376C48 19.4209 48.717 20.1372 49.6003 20.1372H51.2V40.9373C51.2 41.8206 51.917 42.5376 52.8003 42.5376H67.1997H76.8003ZM65.6001 39.3376V20.1372H54.3999V39.3376H65.6001ZM68.8 10.5374C68.7723 10.5374 68.7446 10.5366 68.7172 10.5352C68.6695 10.5238 68.6209 10.5145 68.5715 10.5073C68.0336 10.4304 67.5949 10.102 67.3679 9.65109C67.2603 9.43614 67.1997 9.19381 67.1997 8.93774C67.1997 8.26685 67.6333 7.66406 68.2786 7.43994C68.3266 7.42316 68.3735 7.40419 68.4192 7.38315C68.5413 7.35326 68.6688 7.3374 68.8 7.3374H75.2C75.3339 7.3374 75.4641 7.35394 75.5885 7.38507C75.6318 7.40474 75.6761 7.42257 75.7214 7.43848C76.3667 7.66406 76.8003 8.26685 76.8003 8.93774C76.8003 9.19381 76.7397 9.43613 76.6321 9.65109C76.4051 10.102 75.9664 10.4304 75.4285 10.5073C75.38 10.5143 75.3324 10.5236 75.2855 10.5351C75.2572 10.5366 75.2287 10.5374 75.2 10.5374H68.8ZM60.115 4.13745C62.5875 4.13745 64.2274 4.88178 65.2757 5.68211C64.4841 6.53832 63.9998 7.68253 63.9998 8.93774C63.9998 9.49833 64.0964 10.0368 64.274 10.5374H54.3999V9.8606C54.3999 8.0332 55.2158 6.323 56.5854 5.28955C57.5969 4.5249 58.7842 4.13745 60.115 4.13745ZM89.6001 10.5374V9.8606C89.6001 8.03174 88.7842 6.323 87.4146 5.28809C86.4045 4.5249 85.2173 4.13745 83.8865 4.13745C81.4133 4.13745 79.7732 4.88219 78.7249 5.68276C79.5161 6.53891 80.0002 7.68285 80.0002 8.93774C80.0002 9.49833 79.9036 10.0368 79.726 10.5374H89.6001ZM14.4016 42.5377C14.5351 42.5377 14.6689 42.5209 14.7999 42.4872C14.8352 42.4781 14.8701 42.4678 14.9045 42.4564C15.0566 42.406 15.2021 42.3326 15.3354 42.2366C15.3576 42.2206 15.3796 42.2041 15.4013 42.1869C15.5146 42.0966 15.6122 41.994 15.694 41.8825L22.0496 33.9376C22.6018 33.2476 22.4898 32.2413 21.7998 31.6898C21.1092 31.1361 20.1021 31.2496 19.5506 31.9395L15.9998 36.3778V36.1377C15.9998 22.9036 26.7664 12.1377 39.9998 12.1377C40.8831 12.1377 41.6001 11.4207 41.6001 10.5374C41.6001 9.65405 40.8831 8.93774 39.9998 8.93774C25.002 8.93774 12.7998 21.1392 12.7998 36.1377V36.3751L9.2512 31.9395C8.69895 31.2496 7.69114 31.1361 7.00193 31.6898C6.31199 32.2398 6.19993 33.2476 6.75218 33.9376L13.1071 41.8816L14.4016 42.5377ZM56.0002 85.7373C55.1169 85.7373 54.3999 85.021 54.3999 84.1377C54.3999 83.2544 55.1169 82.5374 56.0002 82.5374C69.2336 82.5374 80.0002 71.7708 80.0002 58.5374V58.299L76.4494 62.7377C76.133 63.1325 75.6687 63.3376 75.1985 63.3376C74.8476 63.3376 74.4946 63.2226 74.2002 62.9868C73.5102 62.4352 73.3982 61.4289 73.9504 60.7389L80.3503 52.7387C80.4758 52.5817 80.6248 52.4547 80.7883 52.3586C81.0262 52.2181 81.3036 52.1375 81.5999 52.1375C81.8566 52.1375 82.0992 52.198 82.3143 52.3056C82.5168 52.4059 82.7011 52.5509 82.8516 52.7387L89.2515 60.7389C89.803 61.4289 89.6909 62.4367 89.0017 62.9867C88.7044 63.2226 88.3521 63.3376 88.002 63.3376C87.5325 63.3376 87.0674 63.1325 86.7517 62.7377L83.2002 58.2981V58.5374C83.2002 73.5359 70.998 85.7373 56.0002 85.7373ZM17.6001 82.5374H22.3997V84.1377C22.3997 85.021 23.1167 85.7373 24 85.7373C24.8833 85.7373 25.6003 85.021 25.6003 84.1377V82.5374H27.2C30.7295 82.5374 33.5999 79.667 33.5999 76.1375C33.5999 72.6079 30.7295 69.7375 27.2 69.7375H25.6003V63.3376H30.3999C31.2832 63.3376 32.0002 62.6206 32.0002 61.7373C32.0002 60.854 31.2832 60.1377 30.3999 60.1377H25.6003V58.5374C25.6003 57.6541 24.8833 56.9377 24 56.9377C23.1167 56.9377 22.3997 57.6541 22.3997 58.5374V60.1377H20.8C17.2705 60.1377 14.4001 63.0081 14.4001 66.5376C14.4001 70.0671 17.2705 72.9375 20.8 72.9375H22.3997V79.3374H17.6001C16.7168 79.3374 15.9998 80.0544 15.9998 80.9377C15.9998 81.821 16.7168 82.5374 17.6001 82.5374ZM27.2 79.3374H25.6003V72.9375H27.2C28.9651 72.9375 30.3999 74.373 30.3999 76.1375C30.3999 77.9026 28.9651 79.3374 27.2 79.3374ZM20.8 69.7375H22.3997V63.3376H20.8C19.0349 63.3376 17.6001 64.7725 17.6001 66.5376C17.6001 68.302 19.0349 69.7375 20.8 69.7375ZM0 71.3372C0 84.5713 10.7666 95.3372 24 95.3372C37.2334 95.3372 48 84.5713 48 71.3372C48 58.1038 37.2334 47.3372 24 47.3372C10.7666 47.3372 0 58.1038 0 71.3372ZM3.19995 71.3372C3.19995 59.8689 12.531 50.5378 24 50.5378C35.469 50.5378 44.8 59.8689 44.8 71.3372C44.8 82.8062 35.469 92.1372 24 92.1372C12.531 92.1372 3.19995 82.8062 3.19995 71.3372Z" fill="#34495E"/>
</svg>
