<svg width="96" height="96" viewBox="0 0 96 96" fill="none" xmlns="http://www.w3.org/2000/svg">
<path fill-rule="evenodd" clip-rule="evenodd" d="M43.2 0H1.6C1.17565 0 0.768687 0.168571 0.468629 0.468628C0.168571 0.768686 0 1.17565 0 1.6V27.2C0 27.6243 0.168571 28.0313 0.468629 28.3313C0.768687 28.6314 1.17565 28.8 1.6 28.8H43.2C43.6243 28.8 44.0313 28.6314 44.3314 28.3313C44.6314 28.0313 44.8 27.6243 44.8 27.2V1.6C44.8 1.17565 44.6314 0.768686 44.3314 0.468628C44.0313 0.168571 43.6243 0 43.2 0ZM37.552 3.19999L22.4 12.528L7.248 3.19999H37.552ZM3.2 25.6V4.46399L21.568 15.76C21.8171 15.9168 22.1056 16.0001 22.4 16.0001C22.6944 16.0001 22.9828 15.9168 23.232 15.76L41.6 4.46399V25.6H3.2ZM8 19.2H11.2V22.4H8V19.2ZM17.6 19.2H14.4V22.4H17.6V19.2ZM20.8 19.2H24V22.4H20.8V19.2ZM30.4 19.2H27.2V22.4H30.4V19.2ZM33.6 19.2H36.8V22.4H33.6V19.2ZM77.344 48.0959L94.944 54.4959C95.2542 54.6061 95.5226 54.8101 95.7118 55.0795C95.901 55.349 96.0017 55.6707 96 55.9999V69.9039C95.9981 72.8011 95.3924 75.6662 94.2216 78.3163C93.0508 80.9664 91.3406 83.3435 89.2 85.2959L77.872 95.5839C77.5791 95.8516 77.1967 96 76.8 96C76.4032 96 76.0208 95.8516 75.728 95.5839L72.256 92.4319C71.5242 93.5268 70.5343 94.4249 69.3736 95.0471C68.2129 95.6693 66.9169 95.9965 65.6 95.9998H8C5.87827 95.9998 3.84344 95.157 2.34315 93.6567C0.842854 92.1564 0 90.1216 0 87.9999V81.5999C0 81.1755 0.168571 80.7686 0.468629 80.4685C0.768687 80.1684 1.17565 79.9999 1.6 79.9999H3.2V43.1999C3.2 41.0782 4.04285 39.0434 5.54314 37.5431C7.04343 36.0428 9.07827 35.1999 11.2 35.1999H62.4C64.5217 35.1999 66.5565 36.0428 68.0568 37.5431C69.5571 39.0434 70.4 41.0782 70.4 43.1999V50.2239L76.256 48.0959C76.6073 47.9679 76.9926 47.9679 77.344 48.0959ZM7.81008 39.81C6.91073 40.7094 6.4038 41.9281 6.4 43.1999V79.9999H9.6V44.7999C9.60253 43.952 9.94049 43.1396 10.5401 42.54C11.1396 41.9404 11.9521 41.6025 12.8 41.5999H60.8C61.6479 41.6025 62.4604 41.9404 63.0599 42.54C63.6595 43.1396 63.9974 43.952 64 44.7999V52.5439L67.2 51.3919V43.1999C67.1962 41.9281 66.6892 40.7094 65.7899 39.81C64.8905 38.9107 63.6719 38.4037 62.4 38.3999H11.2C9.92813 38.4037 8.70943 38.9107 7.81008 39.81ZM12.8 79.9999H60.224C58.5068 76.9117 57.6038 73.4374 57.6 69.9039V55.9999C57.5983 55.6707 57.699 55.349 57.8882 55.0795C58.0774 54.8101 58.3457 54.6061 58.656 54.4959L60.8 53.7119V44.7999H12.8V79.9999ZM8 92.7999H65.6C66.4723 92.7971 67.3275 92.5576 68.0743 92.1067C68.8211 91.6558 69.4314 91.0106 69.84 90.2399L64.4 85.2959C63.6992 84.6406 63.0418 83.9405 62.432 83.1999H3.2V87.9999C3.2038 89.2717 3.71073 90.4904 4.61008 91.3898C5.50943 92.2891 6.72813 92.7961 8 92.7999ZM91.2933 77.0233C92.2851 74.7807 92.7983 72.356 92.8 69.9039V57.1199L76.8 51.2959L60.8 57.1199V69.9039C60.8017 72.356 61.3148 74.7807 62.3066 77.0233C63.2984 79.2658 64.747 81.2768 66.56 82.9279L76.8 92.2399L87.04 82.9279C88.8529 81.2768 90.3016 79.2658 91.2933 77.0233ZM51.2 54.3999H39.392L36.624 48.8799C36.4929 48.6147 36.2898 48.3916 36.0381 48.236C35.7863 48.0804 35.496 47.9986 35.2 47.9999H22.4C21.9757 47.9999 21.5687 48.1685 21.2687 48.4686C20.9686 48.7686 20.8 49.1756 20.8 49.5999V75.1999C20.8 75.6242 20.9686 76.0312 21.2687 76.3313C21.5687 76.6313 21.9757 76.7999 22.4 76.7999H51.2C51.6244 76.7999 52.0314 76.6313 52.3314 76.3313C52.6315 76.0312 52.8 75.6242 52.8 75.1999V55.9999C52.8 55.5756 52.6315 55.1686 52.3314 54.8686C52.0314 54.5685 51.6244 54.3999 51.2 54.3999ZM24 51.1999H34.208L35.808 54.3999H24V51.1999ZM49.6 73.5999H24V57.5999H49.6V73.5999ZM67.6688 71.5311L69.9312 69.2687L75.2 74.5375L85.2688 64.4687L87.5312 66.7311L76.3312 77.9311C76.0312 78.231 75.6243 78.3995 75.2 78.3995C74.7758 78.3995 74.3689 78.231 74.0688 77.9311L67.6688 71.5311ZM94.4 0H52.8C52.3756 0 51.9687 0.168571 51.6686 0.468628C51.3686 0.768686 51.2 1.17565 51.2 1.6V27.2C51.2 27.6243 51.3686 28.0313 51.6686 28.3313C51.9687 28.6314 52.3756 28.8 52.8 28.8H94.4C94.8243 28.8 95.2313 28.6314 95.5313 28.3313C95.8314 28.0313 96 27.6243 96 27.2V1.6C96 1.17565 95.8314 0.768686 95.5313 0.468628C95.2313 0.168571 94.8243 0 94.4 0ZM54.4 3.19999H58.976C58.6861 4.2993 58.1098 5.30204 57.3059 6.10594C56.502 6.90983 55.4993 7.48611 54.4 7.77599V3.19999ZM54.4 25.6V21.024C55.4993 21.3138 56.502 21.8901 57.3059 22.694C58.1098 23.4979 58.6861 24.5007 58.976 25.6H54.4ZM92.8 25.6H88.224C88.5138 24.5007 89.0901 23.4979 89.894 22.694C90.6979 21.8901 91.7007 21.3138 92.8 21.024V25.6ZM92.8 17.744C90.8369 18.0757 89.0258 19.0102 87.618 20.418C86.2102 21.8258 85.2757 23.6369 84.944 25.6H62.256C61.9243 23.6369 60.9897 21.8258 59.5819 20.418C58.1742 19.0102 56.363 18.0757 54.4 17.744V11.056C56.363 10.7243 58.1742 9.78971 59.5819 8.38194C60.9897 6.97417 61.9243 5.16306 62.256 3.19999H84.944C85.2757 5.16306 86.2102 6.97417 87.618 8.38194C89.0258 9.78971 90.8369 10.7243 92.8 11.056V17.744ZM92.8 7.77599C91.7007 7.48611 90.6979 6.90983 89.894 6.10594C89.0901 5.30204 88.5138 4.2993 88.224 3.19999H92.8V7.77599ZM70.0443 9.07858C71.0968 8.37534 72.3342 7.99998 73.6 7.99998C75.2973 7.99998 76.9252 8.67427 78.1254 9.8745C79.3257 11.0747 80 12.7026 80 14.4C80 15.6658 79.6246 16.9031 78.9214 17.9556C78.2181 19.0081 77.2186 19.8284 76.0491 20.3128C74.8797 20.7972 73.5929 20.9239 72.3514 20.677C71.1099 20.43 69.9695 19.8205 69.0745 18.9255C68.1794 18.0304 67.5699 16.89 67.3229 15.6486C67.076 14.4071 67.2027 13.1202 67.6871 11.9508C68.1715 10.7814 68.9918 9.78182 70.0443 9.07858ZM71.8221 17.0607C72.3484 17.4123 72.9671 17.6 73.6 17.6C74.4486 17.6 75.2626 17.2628 75.8627 16.6627C76.4628 16.0626 76.7999 15.2487 76.7999 14.4C76.7999 13.7671 76.6123 13.1484 76.2607 12.6222C75.909 12.0959 75.4093 11.6858 74.8245 11.4436C74.2398 11.2014 73.5964 11.138 72.9757 11.2615C72.3549 11.3849 71.7847 11.6897 71.3372 12.1372C70.8897 12.5848 70.5849 13.1549 70.4614 13.7757C70.338 14.3964 70.4013 15.0398 70.6435 15.6246C70.8857 16.2093 71.2959 16.7091 71.8221 17.0607Z" fill="#34495E"/>
</svg>
