<svg width="104" height="104" viewBox="0 0 104 104" fill="none" xmlns="http://www.w3.org/2000/svg">
<g filter="url(#filter0_d)">
<path fill-rule="evenodd" clip-rule="evenodd" d="M100 48C100 41.1267 95.8983 35.2041 90.0222 32.5161C95.8983 29.8281 100 23.9055 100 17.0323C100 7.64129 92.3587 0 82.9677 0C73.5768 0 65.9355 7.64129 65.9355 17.0323C65.9355 23.9055 70.0372 29.8281 75.9133 32.5161C70.0372 35.2041 65.9355 41.1267 65.9355 48C65.9355 54.8733 70.0372 60.7959 75.9133 63.4839C71.4137 65.5417 67.967 69.4947 66.5951 74.3226H48.9032C48.1677 74.3226 47.4803 74.5099 46.8609 74.8165C47.1675 74.1972 47.3548 73.5097 47.3548 72.7742V69.6774C47.3548 68.4836 46.8888 67.4044 46.1471 66.5806C46.8903 65.7569 47.3548 64.6777 47.3548 63.4839V60.3871C47.3548 57.8261 45.2707 55.7419 42.7097 55.7419H31.871V49.5484H42.7097C50.3928 49.5484 56.6452 43.296 56.6452 35.6129V34.0645H42.7097C38.3339 34.0645 34.4274 36.096 31.871 39.2609V37.1613V35.6129V27.871H42.7097C50.3928 27.871 56.6452 21.6186 56.6452 13.9355V12.3871H42.7097C38.3339 12.3871 34.4274 14.4186 31.871 17.5835V15.4839V13.9355C31.871 6.25239 25.6186 0 17.9355 0H4V1.54839C4 9.23148 10.2524 15.4839 17.9355 15.4839H28.7742V26.3226V26.8738C26.2178 23.7089 22.3112 21.6774 17.9355 21.6774H4V23.2258C4 30.9089 10.2524 37.1613 17.9355 37.1613H28.7742V48V49.5484V55.7419H17.9355C15.3745 55.7419 13.2903 57.8261 13.2903 60.3871V63.4839C13.2903 64.6777 13.7564 65.7569 14.4981 66.5806C13.7564 67.4044 13.2903 68.4836 13.2903 69.6774V72.7742C13.2903 73.968 13.7564 75.0472 14.4981 75.871C13.7564 76.6947 13.2903 77.7739 13.2903 78.9677V82.0645C13.2903 83.2583 13.7564 84.3375 14.4981 85.1613C13.7564 85.985 13.2903 87.0643 13.2903 88.2581V91.3548C13.2903 93.9159 15.3745 96 17.9355 96H42.7097C43.9035 96 44.9827 95.5339 45.8064 94.7923C46.6302 95.5355 47.7094 96 48.9032 96H73.6774C74.8387 96 75.9102 95.5587 76.7463 94.8062C78.6756 95.568 80.7706 96 82.9677 96C92.3587 96 100 88.3587 100 78.9677C100 72.0945 95.8983 66.1719 90.0222 63.4839C95.8983 60.7959 100 54.8733 100 48ZM42.7097 37.1613H53.4384C52.6844 42.4072 48.1615 46.4516 42.7097 46.4516H31.9809C32.735 41.2057 37.2578 37.1613 42.7097 37.1613ZM42.7097 15.4839H53.4384C52.6844 20.7298 48.1615 24.7742 42.7097 24.7742H31.9809C32.735 19.5283 37.2578 15.4839 42.7097 15.4839ZM17.9355 12.3871C12.4836 12.3871 7.96077 8.34271 7.20671 3.09677H17.9355C23.3874 3.09677 27.9102 7.14116 28.6643 12.3871H17.9355ZM17.9355 34.0645C12.4836 34.0645 7.96077 30.0201 7.20671 24.7742H17.9355C23.3874 24.7742 27.9102 28.8186 28.6643 34.0645H17.9355ZM69.0323 17.0323C69.0323 9.34916 75.2846 3.09677 82.9677 3.09677C90.6508 3.09677 96.9032 9.34916 96.9032 17.0323C96.9032 24.7154 90.6508 30.9677 82.9677 30.9677C75.2846 30.9677 69.0323 24.7154 69.0323 17.0323ZM48.9032 77.4193H50.4516V80.5161H53.5484V77.4193H56.6452V80.5161H59.7419V77.4193H66.0144C65.968 77.9303 65.9355 78.4444 65.9355 78.9677C65.9355 80.5796 66.1755 82.1342 66.5951 83.6129H48.9032C48.0501 83.6129 47.3548 82.9192 47.3548 82.0645V78.9677C47.3548 78.113 48.0501 77.4193 48.9032 77.4193ZM17.9355 83.6129C17.0823 83.6129 16.3871 82.9192 16.3871 82.0645V78.9677C16.3871 78.113 17.0823 77.4193 17.9355 77.4193H19.4839V80.5161H22.5806V77.4193H25.6774V80.5161H28.7742V77.4193H31.871V80.5161H34.9677V77.4193H38.0645V80.5161H41.1613V77.4193H42.7097C43.5628 77.4193 44.2581 78.113 44.2581 78.9677V82.0645C44.2581 82.9192 43.5628 83.6129 42.7097 83.6129H17.9355ZM16.3871 72.7742V69.6774C16.3871 68.8227 17.0823 68.129 17.9355 68.129H19.4839V71.2258H22.5806V68.129H25.6774V71.2258H28.7742V68.129H31.871V71.2258H34.9677V68.129H38.0645V71.2258H41.1613V68.129H42.7097C43.5628 68.129 44.2581 68.8227 44.2581 69.6774V72.7742C44.2581 73.6289 43.5628 74.3226 42.7097 74.3226H17.9355C17.0823 74.3226 16.3871 73.6289 16.3871 72.7742ZM16.3871 60.3871C16.3871 59.5324 17.0823 58.8387 17.9355 58.8387H19.4839V61.9355H22.5806V58.8387H25.6774V61.9355H28.7742V58.8387H31.871V61.9355H34.9677V58.8387H38.0645V61.9355H41.1613V58.8387H42.7097C43.5628 58.8387 44.2581 59.5324 44.2581 60.3871V63.4839C44.2581 64.3386 43.5628 65.0323 42.7097 65.0323H17.9355C17.0823 65.0323 16.3871 64.3386 16.3871 63.4839V60.3871ZM42.7097 92.9032H17.9355C17.0823 92.9032 16.3871 92.2095 16.3871 91.3548V88.2581C16.3871 87.4034 17.0823 86.7097 17.9355 86.7097H19.4839V89.8064H22.5806V86.7097H25.6774V89.8064H28.7742V86.7097H31.871V89.8064H34.9677V86.7097H38.0645V89.8064H41.1613V86.7097H42.7097C43.5628 86.7097 44.2581 87.4034 44.2581 88.2581V91.3548C44.2581 92.2095 43.5628 92.9032 42.7097 92.9032ZM48.9032 92.9032C48.0501 92.9032 47.3548 92.2095 47.3548 91.3548V88.2581C47.3548 87.4034 48.0501 86.7097 48.9032 86.7097H50.4516V89.8064H53.5484V86.7097H56.6452V89.8064H59.7419V86.7097H62.8387V89.8064H65.9355V86.7097H67.8152C69.0864 89.1871 70.9414 91.313 73.2052 92.9032H48.9032ZM96.9032 78.9677C96.9032 86.6524 90.6508 92.9032 82.9677 92.9032C75.2846 92.9032 69.0323 86.6524 69.0323 78.9677C69.0323 71.2831 75.2846 65.0323 82.9677 65.0323C90.6508 65.0323 96.9032 71.2831 96.9032 78.9677ZM82.9677 61.9355C75.2846 61.9355 69.0323 55.6846 69.0323 48C69.0323 40.3169 75.2846 34.0645 82.9677 34.0645C90.6508 34.0645 96.9032 40.3169 96.9032 48C96.9032 55.6846 90.6508 61.9355 82.9677 61.9355ZM81.4194 37.1613H84.5161V40.2581H89.1613V44.9032H86.0645V43.3548H81.4194C80.5662 43.3548 79.871 44.0501 79.871 44.9032C79.871 45.7564 80.5662 46.4516 81.4194 46.4516H84.5161C87.0772 46.4516 89.1613 48.5357 89.1613 51.0968C89.1613 53.6578 87.0772 55.7419 84.5161 55.7419V58.8387H81.4194V55.7419H76.7742V51.0968H79.871V52.6452H84.5161C85.3693 52.6452 86.0645 51.9515 86.0645 51.0968C86.0645 50.2421 85.3693 49.5484 84.5161 49.5484H81.4194C78.8583 49.5484 76.7742 47.4643 76.7742 44.9032C76.7742 42.3422 78.8583 40.2581 81.4194 40.2581V37.1613ZM81.4194 89.8065V86.7097H76.7742V82.0645H79.871V83.6129H84.5161C85.3693 83.6129 86.0645 82.9192 86.0645 82.0645C86.0645 81.2098 85.3693 80.5161 84.5161 80.5161H81.4194C78.8583 80.5161 76.7742 78.432 76.7742 75.871C76.7742 73.3099 78.8583 71.2258 81.4194 71.2258V68.129H84.5161V71.2258H89.1613V75.871H86.0645V74.3226H81.4194C80.5662 74.3226 79.871 75.0163 79.871 75.871C79.871 76.7257 80.5662 77.4194 81.4194 77.4194H84.5161C87.0772 77.4194 89.1613 79.5035 89.1613 82.0645C89.1613 84.6255 87.0772 86.7097 84.5161 86.7097V89.8065H81.4194ZM81.4194 9.29032V6.19354H84.5161V9.29032H89.1613V13.9355H86.0645V12.3871H81.4194C80.5662 12.3871 79.871 13.0823 79.871 13.9355C79.871 14.7886 80.5662 15.4839 81.4194 15.4839H84.5161C87.0772 15.4839 89.1613 17.568 89.1613 20.129C89.1613 22.6901 87.0772 24.7742 84.5161 24.7742V27.871H81.4194V24.7742H76.7742V20.129H79.871V21.6774H84.5161C85.3693 21.6774 86.0645 20.9822 86.0645 20.129C86.0645 19.2759 85.3693 18.5806 84.5161 18.5806H81.4194C78.8583 18.5806 76.7742 16.4965 76.7742 13.9355C76.7742 11.3744 78.8583 9.29032 81.4194 9.29032Z" fill="#34495E"/>
</g>
<defs>
<filter id="filter0_d" x="0" y="0" width="104" height="104" filterUnits="userSpaceOnUse" color-interpolation-filters="sRGB">
<feFlood flood-opacity="0" result="BackgroundImageFix"/>
<feColorMatrix in="SourceAlpha" type="matrix" values="0 0 0 0 0 0 0 0 0 0 0 0 0 0 0 0 0 0 127 0"/>
<feOffset dy="4"/>
<feGaussianBlur stdDeviation="2"/>
<feColorMatrix type="matrix" values="0 0 0 0 0 0 0 0 0 0 0 0 0 0 0 0 0 0 0.25 0"/>
<feBlend mode="normal" in2="BackgroundImageFix" result="effect1_dropShadow"/>
<feBlend mode="normal" in="SourceGraphic" in2="effect1_dropShadow" result="shape"/>
</filter>
</defs>
</svg>
