<svg width="96" height="96" viewBox="0 0 96 96" fill="none" xmlns="http://www.w3.org/2000/svg">
<path d="M94.5938 58.2368C95.3704 58.2368 96 57.6073 96 56.8305V26.94C96 23.0629 92.8459 19.9088 88.9688 19.9088H74.2193V7.03125C74.2193 3.15413 71.0651 0 67.188 0H28.812C24.9349 0 21.7808 3.15413 21.7808 7.03125V19.9088H7.03125C3.15413 19.9088 0 23.0629 0 26.94V74.685C0 78.5621 3.15413 81.7162 7.03125 81.7162H41.1135V87.5625H39.3369C35.7701 87.5625 32.8682 90.4644 32.8682 94.0312C32.8682 95.1169 33.7513 96 34.8369 96H61.1629C62.2485 96 63.1316 95.1169 63.1316 94.0312C63.1316 90.4644 60.2297 87.5625 56.6629 87.5625H54.8863V81.7162H88.9688C92.8459 81.7162 96 78.5621 96 74.685V63.3928C96 62.616 95.3704 61.9866 94.5938 61.9866C93.8171 61.9866 93.1875 62.616 93.1875 63.3928V74.685C93.1875 77.0111 91.2951 78.9037 88.9688 78.9037H53.4947C53.4898 78.9037 53.4851 78.903 53.4802 78.903C53.4754 78.903 53.4707 78.9037 53.4658 78.9037H42.5344C42.5295 78.9037 42.5248 78.903 42.5199 78.903C42.5151 78.903 42.5104 78.9037 42.5055 78.9037H7.03125C4.70494 78.9037 2.8125 77.0111 2.8125 74.685V26.94C2.8125 24.6139 4.70494 22.7213 7.03125 22.7213H21.7808V25.5337H7.59375C6.50812 25.5337 5.625 26.4169 5.625 27.5025V74.685C5.625 75.4618 6.25462 76.0912 7.03125 76.0912H88.4062C89.4919 76.0912 90.375 75.2081 90.375 74.1225V27.5025C90.375 26.4169 89.4919 25.5337 88.4062 25.5337H74.2193V22.7213H88.9688C91.2951 22.7213 93.1875 24.6139 93.1875 26.94V56.8305C93.1875 57.6071 93.8171 58.2368 94.5938 58.2368ZM43.926 81.7162H52.074V87.5625H43.926V81.7162ZM56.6631 90.375C58.3888 90.375 59.8391 91.5767 60.2211 93.1875H35.7789C36.1609 91.5767 37.6112 90.375 39.3369 90.375H56.6631ZM21.7808 73.2787H8.4375V28.3462H21.7808V73.2787ZM71.4068 73.2787H24.5933V7.03125C24.5933 4.70512 26.4857 2.8125 28.812 2.8125H67.188C69.5143 2.8125 71.4068 4.70512 71.4068 7.03125V73.2787ZM87.5625 28.3462V73.2787H74.2193V28.3462H87.5625ZM64.1919 50.8125H31.8081C31.0314 50.8125 30.4018 51.4419 30.4018 52.2188C30.4018 52.9956 31.0314 53.625 31.8081 53.625H64.1919C64.9686 53.625 65.5982 52.9956 65.5982 52.2188C65.5982 51.4419 64.9686 50.8125 64.1919 50.8125ZM48 8.4375C44.0886 8.4375 40.3663 9.67575 37.2356 12.0187C36.6139 12.4839 36.4869 13.3656 36.9523 13.9871C37.4177 14.6089 38.2989 14.736 38.9209 14.2706C41.5612 12.2944 44.7007 11.25 48 11.25C56.3745 11.25 63.1875 18.0632 63.1875 26.4375C63.1875 34.8118 56.3745 41.625 48 41.625C39.6255 41.625 32.8125 34.8118 32.8125 26.4375C32.8125 23.7232 33.5404 21.0581 34.9176 18.7301C35.313 18.0619 35.0918 17.1994 34.4233 16.8039C33.7549 16.4087 32.8924 16.6298 32.4969 17.2984C30.8634 20.0593 30 23.2198 30 26.4375C30 36.3628 38.0747 44.4375 48 44.4375C57.9253 44.4375 66 36.3628 66 26.4375C66 16.5122 57.9253 8.4375 48 8.4375ZM41.5208 33.6759C43.4803 35.6537 46.8422 35.6678 48.8122 33.6754L57.5946 24.8929C59.2804 23.2209 59.1896 20.3719 57.4481 18.7871C55.7809 17.2699 53.1996 17.3559 51.5723 18.9831L45.1663 25.389L44.3713 24.594C42.7528 22.9592 40.0281 22.9706 38.4049 24.5938C36.7601 26.2386 36.7599 28.9149 38.4049 30.5599L41.5208 33.6759ZM40.3939 26.5826C40.935 26.0415 41.844 26.0385 42.3827 26.5824L43.7741 27.9741C44.5251 28.7329 45.8051 28.7359 46.5585 27.9744L53.5611 20.9719C54.1151 20.4176 55.0101 20.3708 55.5555 20.8671C56.1403 21.3992 56.1698 22.3464 55.6061 22.9039L46.8238 31.6864C46.3823 32.1278 45.7937 32.3709 45.1665 32.3709C44.5393 32.3709 43.9507 32.1279 43.5096 31.6869L40.3941 28.5713C39.8456 28.023 39.8456 27.1309 40.3939 26.5826ZM64.1919 59.25H31.8081C31.0314 59.25 30.4018 59.8794 30.4018 60.6562C30.4018 61.4331 31.0314 62.0625 31.8081 62.0625H64.1919C64.9686 62.0625 65.5982 61.4331 65.5982 60.6562C65.5982 59.8794 64.9686 59.25 64.1919 59.25Z" fill="#29939B"/>
</svg>
