<svg width="96" height="96" viewBox="0 0 96 96" fill="none" xmlns="http://www.w3.org/2000/svg">
<g clip-path="url(#clip0)">
<path fill-rule="evenodd" clip-rule="evenodd" d="M66 36V24C66 14.076 57.924 6 48 6C38.076 6 30 14.076 30 24V36H66ZM24 36V24C24 10.764 34.764 0 48 0C61.236 0 72 10.764 72 24V36H75C79.96 36 84 40.036 84 45V87C84 91.964 79.96 96 75 96H21C16.04 96 12 91.964 12 87V45C12 40.036 16.04 36 21 36H24ZM18 45C18 43.344 19.348 42 21 42H75C76.652 42 78 43.344 78 45V87C78 88.656 76.652 90 75 90H21C19.348 90 18 88.656 18 87V45ZM45 67.4167C42.0705 66.2278 40 63.3517 40 60.0001C40 55.5881 43.588 52.0001 48 52.0001C52.412 52.0001 56 55.5881 56 60.0001C56 63.3517 53.9294 66.2278 51 67.4167V77C51 78.656 49.656 80 48 80C46.344 80 45 78.656 45 77V67.4167ZM48 58.0001C46.9 58.0001 46 58.8961 46 60.0001C46 61.1041 46.9 62.0001 48 62.0001C49.1 62.0001 50 61.1041 50 60.0001C50 58.8961 49.1 58.0001 48 58.0001Z" fill="#29939B"/>
</g>
<defs>
<clipPath id="clip0">
<rect width="96" height="96" fill="white"/>
</clipPath>
</defs>
</svg>
