<svg width="96" height="96" viewBox="0 0 96 96" fill="none" xmlns="http://www.w3.org/2000/svg">
<path fill-rule="evenodd" clip-rule="evenodd" d="M84.621 67.5H91.5C93.1545 67.5 94.5 68.8455 94.5 70.5V91.5C94.5 93.1545 93.1545 94.5 91.5 94.5H76.5C74.8455 94.5 73.5 93.1545 73.5 91.5V70.5C73.5 68.8455 74.8455 67.5 76.5 67.5H80.379L69.6645 56.7855C63.4065 59.625 56.571 61.2465 49.5 61.449V67.5H55.5C57.1545 67.5 58.5 68.8455 58.5 70.5V91.5C58.5 93.1545 57.1545 94.5 55.5 94.5H40.5C38.8455 94.5 37.5 93.1545 37.5 91.5V70.5C37.5 68.8455 38.8455 67.5 40.5 67.5H46.5V61.449C39.429 61.2465 32.5935 59.625 26.3355 56.7855L15.621 67.5H19.5C21.1545 67.5 22.5 68.8455 22.5 70.5V91.5C22.5 93.1545 21.1545 94.5 19.5 94.5H4.50003C2.84553 94.5 1.50003 93.1545 1.50003 91.5V70.5C1.50003 68.8455 2.84553 67.5 4.50003 67.5H11.379L23.487 55.392C14.643 50.715 7.14603 43.551 2.11953 34.503L1.28253 33L2.11953 31.497C8.90253 19.287 20.472 10.185 33.9135 6.435C36.1365 3.447 39.6825 1.5 43.6845 1.5H52.3155C56.3175 1.5 59.8635 3.447 62.0865 6.435C75.528 10.185 87.0975 19.2885 93.8805 31.497L94.7175 33L93.8805 34.503C88.854 43.551 81.357 50.7165 72.513 55.392L84.621 67.5ZM4.50003 91.5H19.503L19.5 70.5H4.50003V91.5ZM40.5 91.5H55.503L55.5 70.5H40.5V91.5ZM91.2825 33L91.2585 32.9535C85.6725 22.9005 76.6425 15.0825 66.003 10.905C72.6285 16.2915 76.5 24.324 76.5 33C76.5 41.901 72.393 49.8555 65.9805 55.086C76.5435 50.9595 85.572 43.278 91.257 33.0465L91.2825 33ZM34.5 22.5C34.5 24.1545 35.8455 25.5 37.5 25.5V19.5C35.8455 19.5 34.5 20.8455 34.5 22.5ZM32.502 19.191L31.8645 16.6395C31.623 15.6765 31.5 14.682 31.5 13.6845C31.5 13.6626 31.5016 13.641 31.5031 13.6196L31.5031 13.6196C31.5046 13.5986 31.506 13.5778 31.506 13.557C25.815 18.3705 22.5 25.41 22.5 33C22.5 39.3015 24.8085 45.0645 28.6095 49.5195C29.343 42.6195 34.1205 36.789 40.8285 34.767L41.2635 33.465C39.441 32.406 38.085 30.6285 37.6515 28.5H37.5C34.191 28.5 31.5 25.809 31.5 22.5C31.5 21.2775 31.872 20.1405 32.502 19.191ZM61.5 22.5C61.5 20.8455 60.1545 19.5 58.5 19.5V25.5C60.1545 25.5 61.5 24.1545 61.5 22.5ZM58.5 28.5H58.3485C57.915 30.6285 56.559 32.406 54.7365 33.465L55.1715 34.767C61.878 36.789 66.657 42.621 67.3905 49.5195C71.1915 45.0645 73.5 39.3015 73.5 33C73.5 25.4085 70.185 18.369 64.494 13.5555C64.494 13.5772 64.4955 13.5986 64.497 13.62C64.4985 13.6414 64.5 13.6628 64.5 13.6845C64.5 14.682 64.377 15.6765 64.1355 16.641L63.498 19.191C64.128 20.1405 64.5 21.2775 64.5 22.5C64.5 25.809 61.809 28.5 58.5 28.5ZM51 34.5H45C44.7721 34.5 44.5525 34.4697 44.3326 34.4394C44.2587 34.4292 44.1848 34.419 44.1105 34.41L43.8345 35.2395L48 37.323L52.1655 35.2395L51.8895 34.41C51.8154 34.419 51.7417 34.4292 51.668 34.4393L51.6679 34.4394L51.6677 34.4394L51.6675 34.4394C51.4475 34.4697 51.228 34.5 51 34.5ZM54.1455 37.605L51.1155 39.12L54.792 41.3265L56.0745 38.3085C55.4565 38.028 54.8115 37.797 54.1455 37.605ZM44.8845 39.12L41.8545 37.605C41.19 37.797 40.5435 38.028 39.924 38.3085L41.2065 41.3265L44.8845 39.12ZM39.792 45.6735L37.317 39.843C33.744 42.4845 31.5 46.704 31.5 51.3705V52.4085C34.1745 54.6855 37.32 56.4195 40.773 57.4425L44.892 45.084L44.016 43.14L39.792 45.6735ZM46.6065 41.5845L47.469 43.5H48.531L49.3935 41.5845L48 40.749L46.6065 41.5845ZM56.208 45.6735L51.984 43.14L51.108 45.0825L55.227 57.441C58.68 56.418 61.8255 54.684 64.5 52.407V51.369C64.5 46.704 62.256 42.4845 58.683 39.843L56.208 45.6735ZM51 31.5C53.481 31.5 55.5 29.481 55.5 27V19.3575L47.8215 18.5895C45.384 18.345 43.296 17.0565 41.9805 15.192C41.0625 15.7305 40.5 16.704 40.5 17.781V27C40.5 29.481 42.519 31.5 45 31.5H51ZM47.58 46.5L43.7115 58.11C45.108 58.3485 46.536 58.5 48 58.5C49.464 58.5 50.892 58.3485 52.2885 58.11L48.4185 46.5H47.58ZM52.3155 4.5H43.6845C38.6205 4.5 34.5 8.6205 34.5 13.6845C34.5 14.436 34.593 15.186 34.773 15.9105L35.0535 17.0325C35.8035 16.6965 36.627 16.5 37.5 16.5H37.65C38.0235 14.775 39.1245 13.29 40.734 12.456C40.581 11.829 40.5 11.1735 40.5 10.5H43.5C43.5 13.1475 45.486 15.342 48.12 15.6045L57.078 16.5H58.5C59.373 16.5 60.1965 16.6965 60.945 17.0325L61.2255 15.912C61.407 15.186 61.5 14.436 61.5 13.6845C61.5 8.6205 57.3795 4.5 52.3155 4.5ZM4.71753 33L4.74153 33.0465C10.4265 43.278 19.455 50.9595 30.018 55.086C23.607 49.8555 19.5 41.901 19.5 33C19.5 24.3225 23.373 16.29 30.003 10.9035C19.3605 15.081 10.329 22.899 4.74303 32.9535L4.71753 33ZM76.5 70.5V91.5H91.503L91.5 70.5H76.5ZM43.5 28.5H48C50.4225 28.5 52.6005 27.1545 53.6835 24.987L53.841 24.6705L51.1575 23.328L51 23.646C50.4285 24.789 49.2795 25.5 48 25.5H43.5V28.5ZM52.5 85.5V88.5H43.5V85.5H52.5ZM52.5 82.5V79.5H43.5V82.5H52.5ZM52.5 73.5V76.5H43.5V73.5H52.5ZM7.5 85.5H16.5V88.5H7.5V85.5ZM16.5 79.5H7.5V82.5H16.5V79.5ZM7.5 73.5H16.5V76.5H7.5V73.5ZM80.5605 81.4395L82.2675 83.1465L87.252 75.6674L89.748 77.3325L82.7325 87.8535L78.4395 83.5605L80.5605 81.4395Z" fill="#29939B"/>
</svg>
