<svg width="96" height="96" viewBox="0 0 96 96" fill="none" xmlns="http://www.w3.org/2000/svg">
<path fill-rule="evenodd" clip-rule="evenodd" d="M69.4054 93.4054H26.5946C25.2183 93.4054 23.8984 92.8587 22.9253 91.8855C21.9521 90.9124 21.4054 89.5925 21.4054 88.2162V7.78379C21.4054 6.40754 21.9521 5.08764 22.9253 4.11448C23.8984 3.14132 25.2183 2.5946 26.5946 2.5946H69.4054C70.7817 2.5946 72.1015 3.14132 73.0747 4.11448C74.0479 5.08764 74.5946 6.40754 74.5946 7.78379V88.2162C74.5946 89.5925 74.0479 90.9124 73.0747 91.8855C72.1015 92.8587 70.7817 93.4054 69.4054 93.4054ZM26.5946 5.1892C25.9065 5.1892 25.2465 5.46256 24.7599 5.94914C24.2733 6.43572 24 7.09566 24 7.78379V88.2162C24 88.9044 24.2733 89.5643 24.7599 90.0509C25.2465 90.5375 25.9065 90.8108 26.5946 90.8108H69.4054C70.0935 90.8108 70.7535 90.5375 71.2401 90.0509C71.7266 89.5643 72 88.9044 72 88.2162V7.78379C72 7.09566 71.7266 6.43572 71.2401 5.94914C70.7535 5.46256 70.0935 5.1892 69.4054 5.1892H26.5946ZM52.4328 11.4072H43.5671C43.2231 11.4072 42.8931 11.2705 42.6498 11.0272C42.4065 10.7839 42.2698 10.4539 42.2698 10.1099C42.2698 9.76581 42.4065 9.43583 42.6498 9.19254C42.8931 8.94925 43.2231 8.81257 43.5671 8.81257H52.4328C52.7769 8.81257 53.1069 8.94925 53.3502 9.19254C53.5935 9.43583 53.7301 9.76581 53.7301 10.1099C53.7301 10.4539 53.5935 10.7839 53.3502 11.0272C53.1069 11.2705 52.7769 11.4072 52.4328 11.4072ZM42.1622 86.919H53.8379C54.1819 86.919 54.5119 86.7823 54.7552 86.539C54.9985 86.2957 55.1352 85.9658 55.1352 85.6217C55.1352 85.2776 54.9985 84.9476 54.7552 84.7044C54.5119 84.4611 54.1819 84.3244 53.8379 84.3244H42.1622C41.8181 84.3244 41.4881 84.4611 41.2448 84.7044C41.0016 84.9476 40.8649 85.2776 40.8649 85.6217C40.8649 85.9658 41.0016 86.2957 41.2448 86.539C41.4881 86.7823 41.8181 86.919 42.1622 86.919ZM47.9741 63.8764C47.036 63.8761 46.0995 63.8015 45.1732 63.6533C41.2034 62.9941 37.5912 60.9616 34.9672 57.9105C32.3433 54.8595 30.8742 50.9838 30.8166 46.96C30.759 42.9363 32.1164 39.0201 34.652 35.8952C37.1875 32.7703 40.74 30.6352 44.6893 29.8626C44.8773 29.8256 45.0711 29.8307 45.2568 29.8775C45.4426 29.9244 45.6157 30.0118 45.7636 30.1334C45.9116 30.2551 46.0308 30.4081 46.1126 30.5813C46.1945 30.7545 46.2369 30.9437 46.237 31.1352V47.4812C46.237 47.744 46.3414 47.9961 46.5273 48.182C46.7131 48.3679 46.9652 48.4723 47.2281 48.4723H63.5676C63.759 48.4724 63.948 48.5148 64.1211 48.5966C64.2942 48.6783 64.4471 48.7974 64.5687 48.9452C64.6904 49.093 64.7778 49.2659 64.8248 49.4515C64.8717 49.6371 64.877 49.8308 64.8402 50.0187C64.0802 53.93 61.98 57.4538 58.9014 59.9833C55.8228 62.5128 51.9585 63.8895 47.9741 63.8764ZM43.6424 32.7984C41.2483 33.5464 39.0878 34.8995 37.3697 36.7269C35.6516 38.5542 34.434 40.7939 33.8347 43.2295C33.2354 45.665 33.2746 48.214 33.9486 50.63C34.6226 53.0459 35.9086 55.2471 37.6821 57.0206C39.4557 58.7942 41.6569 60.0802 44.0728 60.7542C46.4888 61.4282 49.0378 61.4674 51.4733 60.8681C53.9089 60.2688 56.1486 59.0512 57.9759 57.3331C59.8032 55.615 61.1564 53.4545 61.9044 51.0604H47.2281C46.2785 51.0594 45.3681 50.6822 44.696 50.0113C44.024 49.3405 43.6451 48.4307 43.6424 47.4812V32.7984ZM51.0435 44.9579H63.5676C63.759 44.9579 63.9481 44.9154 64.1212 44.8336C64.2943 44.7519 64.4471 44.6328 64.5688 44.485C64.6904 44.3372 64.7778 44.1643 64.8248 43.9787C64.8717 43.7931 64.877 43.5994 64.8402 43.4116C64.1671 40.0699 62.5222 37.0014 60.1118 34.591C57.7014 32.1806 54.6329 30.5357 51.2912 29.8626C51.1035 29.826 50.9099 29.8315 50.7245 29.8785C50.5391 29.9256 50.3663 30.013 50.2187 30.1346C50.071 30.2563 49.9521 30.409 49.8704 30.582C49.7887 30.755 49.7463 30.9439 49.7462 31.1352V43.6606C49.7462 44.0047 49.8828 44.3347 50.1261 44.578C50.3694 44.8212 50.6994 44.9579 51.0435 44.9579ZM61.9005 42.3633H52.3408V32.8023C54.5812 33.518 56.618 34.7594 58.281 36.4226C59.944 38.0859 61.1851 40.1228 61.9005 42.3633Z" fill="#29939B"/>
</svg>
