<svg width="96" height="96" viewBox="0 0 96 96" fill="none" xmlns="http://www.w3.org/2000/svg">
<path fill-rule="evenodd" clip-rule="evenodd" d="M91.007 40.5H91.5009C91.6979 40.5 91.8929 40.5388 92.0749 40.6142C92.2568 40.6896 92.4222 40.8001 92.5614 40.9394C92.7007 41.0787 92.8111 41.2441 92.8864 41.426C92.9618 41.608 93.0005 41.8031 93.0005 42C93.0005 42.008 93.0004 42.0159 93.0003 42.0238C93.0002 42.0306 93 42.0373 92.9998 42.0441C92.9864 43.6271 92.3486 45.1409 91.225 46.2562C90.1015 47.3715 88.5831 47.9982 87 48H66C64.4093 47.9982 62.8842 47.3655 61.7594 46.2407C60.6345 45.1159 60.0018 43.5908 60 42C60 41.6022 60.158 41.2207 60.4393 40.9394C60.7206 40.6581 61.1022 40.5 61.5 40.5H61.993L64.9659 33.2328C64.6567 31.8689 64.5004 30.4748 64.5 29.0764V22.5C64.5 22.1022 64.658 21.7207 64.9393 21.4394C65.2206 21.1581 65.6022 21 66 21C66.7954 20.9991 67.5579 20.6828 68.1203 20.1204C68.6827 19.5579 68.9991 18.7954 69 18C68.9998 17.7655 69.0547 17.5341 69.1603 17.3247C69.2658 17.1152 69.4191 16.9335 69.6078 16.7941C65.6726 18.9118 62.1255 21.6822 59.1177 24.9872C57.9829 26.2347 56.7748 27.4135 55.5 28.5174C55.4954 29.5421 55.2819 30.555 54.8723 31.4943C54.4627 32.4335 53.8658 33.2793 53.1181 33.9799L58.3598 81.1554C59.7943 81.4893 61.0559 82.3391 61.9044 83.543C62.7528 84.7469 63.1288 86.2208 62.9608 87.684C62.7929 89.1472 62.0926 90.4975 60.9934 91.4778C59.8942 92.4581 58.4728 92.9999 57 93H39C37.5272 92.9999 36.1058 92.4581 35.0066 91.4778C33.9074 90.4975 33.2071 89.1472 33.0392 87.684C32.8712 86.2208 33.2472 84.7469 34.0957 83.543C34.9441 82.3391 36.2057 81.4893 37.6402 81.1554L42.6392 36.1638C41.7862 36.4843 40.9248 36.7768 40.061 37.039C33.2867 39.0964 27.1917 42.9408 22.4166 48.1679L30.3252 67.5H31.5C32.2954 67.5009 33.0579 67.8173 33.6203 68.3797C34.1827 68.9421 34.4991 69.7047 34.5 70.5V76.5C34.697 76.5 34.892 76.5388 35.074 76.6142C35.256 76.6896 35.4214 76.8001 35.5607 76.9394C35.7 77.0787 35.8104 77.244 35.8858 77.426C35.9612 77.608 36 77.803 36 78C35.9982 79.5908 35.3655 81.1159 34.2407 82.2407C33.1158 83.3655 31.5907 83.9982 30 84H9C7.40925 83.9982 5.88417 83.3655 4.75934 82.2407C3.63451 81.1159 3.00179 79.5908 3 78C3 77.803 3.03879 77.608 3.11417 77.426C3.18955 77.244 3.30004 77.0787 3.43933 76.9394C3.57862 76.8001 3.74398 76.6896 3.92597 76.6142C4.10796 76.5388 4.30302 76.5 4.5 76.5V70.5C4.5009 69.7047 4.81726 68.9421 5.37968 68.3797C5.94209 67.8173 6.70463 67.5009 7.5 67.5H8.67479L13.707 55.199C12.8899 55.1313 12.108 54.8362 11.4498 54.3471C10.7917 53.8579 10.2836 53.1944 9.9831 52.4314C9.68259 51.6685 9.60165 50.8367 9.74943 50.0301C9.89722 49.2236 10.2678 48.4745 10.8193 47.8677L16.9258 41.1491C22.0742 35.4859 28.6592 31.3215 35.9825 29.0974C37.5513 28.6204 39.089 28.0462 40.5864 27.378C40.7556 26.2733 41.1685 25.2202 41.7952 24.2949C42.422 23.3696 43.2468 22.5955 44.2098 22.0285L44.8435 16.3253C44.9298 15.5484 45.2995 14.8307 45.8819 14.3095C46.4643 13.7882 47.2184 13.5 48 13.5C48.7816 13.5 49.5357 13.7882 50.1181 14.3094C50.7005 14.8307 51.0702 15.5484 51.1565 16.3252L51.5707 20.0536C52.3125 19.3557 53.0191 18.6373 53.6907 17.8985C58.839 12.2352 65.424 8.07072 72.7473 5.84663L81.4348 3.20918C81.8484 3.08347 82.2783 3.01956 82.7105 3.01953C83.7636 3.01957 84.7817 3.39797 85.5791 4.08579C86.3765 4.7736 86.9003 5.72504 87.0549 6.76671C87.2096 7.80838 86.9848 8.87094 86.4216 9.76075C85.8584 10.6506 84.9942 11.3084 83.9865 11.6144L79.72 12.9097L81.1889 16.5H82.5C82.8978 16.5 83.2794 16.6581 83.5607 16.9394C83.842 17.2207 84 17.6022 84 18C84.0009 18.7954 84.3173 19.5579 84.8797 20.1204C85.4421 20.6828 86.2046 20.9991 87 21C87.3978 21 87.7794 21.1581 88.0607 21.4394C88.342 21.7207 88.5 22.1022 88.5 22.5V29.0764C88.4996 30.4748 88.3433 31.8689 88.0341 33.2328L91.007 40.5ZM89.3707 44.9034C90.0401 44.3569 90.5006 43.5964 90.6747 42.75H62.3253C62.4994 43.5964 62.9599 44.3569 63.6293 44.9034C64.2986 45.4499 65.1359 45.7489 66 45.75H87C87.8641 45.7489 88.7014 45.4499 89.3707 44.9034ZM66.75 23.1966V29.0764C66.75 29.6085 66.777 30.1376 66.8277 30.6626L68.25 27.1858V24.8738C68.25 24.7281 68.2925 24.5855 68.3722 24.4635C68.4519 24.3414 68.5655 24.2453 68.699 24.1868C69.0471 24.0338 69.3817 23.8518 69.6994 23.6429L71.701 18.75H71.1966C71.0329 19.8711 70.5117 20.9094 69.7106 21.7106C68.9094 22.5117 67.8711 23.0329 66.75 23.1966ZM36.3484 89.6517C37.0516 90.3549 38.0054 90.75 39 90.75H57C57.9946 90.75 58.9484 90.3549 59.6517 89.6517C60.3549 88.9484 60.75 87.9946 60.75 87C60.75 86.0055 60.3549 85.0516 59.6517 84.3484C58.9484 83.6451 57.9946 83.25 57 83.25H39C38.0054 83.25 37.0516 83.6451 36.3484 84.3484C35.6451 85.0516 35.25 86.0055 35.25 87C35.25 87.9946 35.6451 88.9484 36.3484 89.6517ZM9 81.75H30C30.8641 81.7489 31.7014 81.4499 32.3707 80.9034C33.0401 80.3569 33.5006 79.5964 33.6747 78.75H5.32535C5.49939 79.5964 5.9599 80.3569 6.62926 80.9034C7.29862 81.4499 8.1359 81.7489 9 81.75ZM6.9699 69.9699C6.8293 70.1105 6.75021 70.3012 6.75 70.5V74.1859L8.56466 69.75H7.5C7.30115 69.7502 7.11051 69.8293 6.9699 69.9699ZM28.201 68.25L20.4255 49.2434L17.0593 52.947L10.799 68.25H28.201ZM27.75 76.5V70.5C27.7498 70.3012 27.6707 70.1105 27.5301 69.9699C27.3895 69.8293 27.1988 69.7502 27 69.75H24.6215C24.7068 69.9909 24.7502 70.2445 24.75 70.5V76.5C24.7502 76.7555 24.7068 77.0092 24.6215 77.25H27C27.1988 77.2498 27.3895 77.1707 27.5301 77.0301C27.6707 76.8895 27.7498 76.6989 27.75 76.5ZM17.0301 69.9699C16.8895 69.8293 16.6988 69.7502 16.5 69.75H10.1853L9.59842 71.1847H17.25V70.5C17.2498 70.3012 17.1707 70.1105 17.0301 69.9699ZM8.99244 72.6839C8.99012 72.6836 8.9878 72.6832 8.9854 72.6832L7.15349 77.1612C7.26 77.2187 7.37897 77.2492 7.5 77.25H16.5C16.6988 77.2498 16.8895 77.1707 17.0301 77.0301C17.1707 76.8895 17.2498 76.6989 17.25 76.5V75.6847H9C8.80109 75.6847 8.61032 75.6056 8.46967 75.465C8.32902 75.3243 8.25 75.1336 8.25 74.9347C8.25 74.7357 8.32902 74.545 8.46967 74.4043C8.61032 74.2637 8.80109 74.1847 9 74.1847H17.25V72.6847H9C8.99741 72.6847 8.99493 72.6843 8.99244 72.6839ZM18.75 75.6847V76.5C18.755 76.7591 18.7 77.0158 18.5894 77.25H22.5C22.6988 77.2498 22.8895 77.1707 23.0301 77.0301C23.1707 76.8895 23.2498 76.6989 23.25 76.5V70.5C23.2498 70.3012 23.1707 70.1105 23.0301 69.9699C22.8895 69.8293 22.6988 69.7502 22.5 69.75H18.6187C18.7051 69.9907 18.7495 70.2444 18.75 70.5V71.1847H21C21.1989 71.1847 21.3897 71.2637 21.5303 71.4043C21.671 71.545 21.75 71.7357 21.75 71.9347C21.75 72.1336 21.671 72.3243 21.5303 72.465C21.3897 72.6056 21.1989 72.6847 21 72.6847H18.75V74.1847H21C21.1989 74.1847 21.3897 74.2637 21.5303 74.4043C21.671 74.545 21.75 74.7357 21.75 74.9347C21.75 75.1336 21.671 75.3243 21.5303 75.465C21.3897 75.6056 21.1989 75.6847 21 75.6847H18.75ZM31.5 71.25H32.25V70.5C32.2498 70.3012 32.1707 70.1105 32.0301 69.9699C31.8895 69.8293 31.6988 69.7502 31.5 69.75H29.1187C29.2051 69.9907 29.2495 70.2444 29.25 70.5V76.5C29.2499 76.7556 29.2059 77.0093 29.1201 77.25H31.5C31.6988 77.2498 31.8895 77.1707 32.0301 77.0301C32.1707 76.8895 32.2498 76.6989 32.25 76.5V75.75H31.5C31.3011 75.75 31.1103 75.671 30.9697 75.5304C30.829 75.3897 30.75 75.1989 30.75 75C30.75 74.8011 30.829 74.6104 30.9697 74.4697C31.1103 74.329 31.3011 74.25 31.5 74.25H32.25V72.75H31.5C31.3011 72.75 31.1103 72.671 30.9697 72.5304C30.829 72.3897 30.75 72.1989 30.75 72C30.75 71.8011 30.829 71.6104 30.9697 71.4697C31.1103 71.329 31.3011 71.25 31.5 71.25ZM15.6545 52.2624L20.6878 46.7247C25.745 41.1616 32.2135 37.0709 39.4073 34.8862C40.7639 34.4736 42.0977 33.9898 43.4033 33.4367C42.2872 32.4003 41.555 31.0165 41.3259 29.5107C39.7988 30.1838 38.2327 30.7647 36.6361 31.2503C29.7014 33.3564 23.4659 37.2998 18.5908 42.6625L12.4843 49.381C12.2951 49.5892 12.1488 49.8326 12.0536 50.0973C11.9585 50.362 11.9165 50.6428 11.9299 50.9238C11.9433 51.2048 12.0119 51.4804 12.1318 51.7348C12.2517 51.9893 12.4206 52.2176 12.6287 52.4068C12.8369 52.596 13.0803 52.7423 13.345 52.8374C13.6097 52.9326 13.8906 52.9746 14.1715 52.9612C14.4525 52.9478 14.7281 52.8792 14.9825 52.7593C15.237 52.6394 15.4653 52.4705 15.6545 52.2624ZM47.3825 15.986C47.2128 16.138 47.105 16.3472 47.0798 16.5736L46.4854 21.9235C47.4819 21.6922 48.5181 21.6922 49.5146 21.9235L48.9202 16.5736C48.895 16.3472 48.7872 16.138 48.6175 15.986C48.4477 15.8341 48.2278 15.75 48 15.75C47.7722 15.75 47.5523 15.8341 47.3825 15.986ZM50.9167 24.1348C50.0534 23.5579 49.0384 23.25 48 23.25C46.6081 23.2516 45.2736 23.8052 44.2894 24.7894C43.3052 25.7737 42.7516 27.1081 42.75 28.5C42.75 29.5384 43.0579 30.5534 43.6348 31.4168C44.2117 32.2801 45.0316 32.953 45.9909 33.3504C46.9502 33.7478 48.0058 33.8517 49.0242 33.6492C50.0426 33.4466 50.9781 32.9466 51.7123 32.2123C52.4465 31.4781 52.9465 30.5427 53.1491 29.5243C53.3517 28.5059 53.2477 27.4503 52.8504 26.4909C52.453 25.5316 51.7801 24.7117 50.9167 24.1348ZM50.9214 34.5845C50.0102 35.0237 49.0115 35.2512 48 35.25C46.9885 35.2512 45.9898 35.0237 45.0786 34.5844L39.8379 81.75H56.1621L50.9214 34.5845ZM51.772 22.9049C53.033 23.7571 53.9705 25.0089 54.4337 26.4587C55.4918 25.5175 56.4995 24.5212 57.4526 23.474C62.5098 17.9108 68.9783 13.8201 76.1721 11.6355L83.3329 9.46146C83.6485 9.36561 83.9378 9.19815 84.1781 8.97213C84.4184 8.74611 84.6033 8.46764 84.7182 8.15844C84.8332 7.84923 84.8753 7.51764 84.841 7.18953C84.8068 6.86141 84.6973 6.54563 84.5209 6.26682C84.2696 5.87143 83.8959 5.56904 83.4567 5.40571C83.0176 5.24238 82.5371 5.22707 82.0885 5.36209L73.4009 7.99954C66.4663 10.1056 60.2308 14.0491 55.3556 19.4118C54.2319 20.6467 53.0353 21.8131 51.772 22.9049ZM77.2724 12.8689L76.6079 13.0707C76.2366 13.1842 75.8672 13.3026 75.4997 13.426L73.9353 17.25H79.0646L77.2724 12.8689ZM79.6522 21.75H73.3478C72.7704 22.8808 71.9397 23.8629 70.9204 24.6198L69.75 27.4808V29.0764C69.7477 31.4525 70.3701 33.7875 71.5548 35.8471C72.7396 37.9068 74.4449 39.6188 76.5 40.8115C78.5551 39.6188 80.2604 37.9068 81.4452 35.8471C82.6299 33.7875 83.2523 31.4525 83.25 29.0764V25.3479C81.7015 24.5577 80.4423 23.2985 79.6522 21.75ZM67.3264 33.4051C68.1418 36.4144 69.7884 39.1333 72.0777 41.25H74.4311C72.7609 40.0313 71.3597 38.4815 70.3151 36.6972C69.2705 34.9129 68.6048 32.9324 68.3596 30.8794L67.3264 33.4051ZM64.1171 41.25H69.9651C68.4488 39.5843 67.2568 37.6501 66.4502 35.5469L64.1171 41.25ZM70.5 16.5H71.8111L72.2156 15.5114C71.4661 15.8464 70.7282 16.2042 70.0021 16.5846C70.1621 16.5284 70.3304 16.4998 70.5 16.5ZM78.5689 41.25H80.9223C82.6012 39.6975 83.9411 37.8147 84.8579 35.7198C85.7747 33.6249 86.2486 31.3632 86.25 29.0764V23.1966C85.1289 23.0329 84.0906 22.5117 83.2894 21.7106C82.4883 20.9094 81.9671 19.8711 81.8034 18.75H73.3217L72.6988 20.2726C72.756 20.2582 72.8147 20.2506 72.8737 20.25H80.1263C80.2721 20.2501 80.4147 20.2926 80.5367 20.3723C80.6587 20.4521 80.7548 20.5657 80.8133 20.6992C81.495 22.2596 82.7406 23.5052 84.301 24.1868C84.4345 24.2453 84.5481 24.3414 84.6278 24.4635C84.7075 24.5855 84.75 24.7281 84.75 24.8738V29.0764C84.752 31.4491 84.1931 33.7887 83.1189 35.9043C82.0447 38.0199 80.4857 39.8516 78.5689 41.25ZM88.8828 41.25L86.5493 35.5459C85.7441 37.6463 84.5533 39.5814 83.0349 41.25H88.8828ZM48 32.25C48.7417 32.25 49.4667 32.0301 50.0834 31.618C50.7001 31.206 51.1807 30.6203 51.4646 29.9351C51.7484 29.2499 51.8226 28.4959 51.6779 27.7684C51.5332 27.041 51.1761 26.3728 50.6517 25.8484C50.1272 25.3239 49.459 24.9668 48.7316 24.8221C48.0042 24.6774 47.2502 24.7516 46.5649 25.0355C45.8797 25.3193 45.294 25.7999 44.882 26.4166C44.4699 27.0333 44.25 27.7583 44.25 28.5C44.2511 29.4942 44.6466 30.4474 45.3496 31.1504C46.0526 31.8535 47.0058 32.2489 48 32.25ZM48 26.25C48.445 26.25 48.88 26.382 49.25 26.6292C49.62 26.8764 49.9084 27.2278 50.0787 27.639C50.249 28.0501 50.2936 28.5025 50.2068 28.939C50.1199 29.3754 49.9057 29.7763 49.591 30.091C49.2763 30.4057 48.8754 30.62 48.439 30.7068C48.0025 30.7936 47.5501 30.749 47.139 30.5787C46.7278 30.4085 46.3764 30.1201 46.1292 29.7501C45.882 29.38 45.75 28.945 45.75 28.5C45.7507 27.9035 45.9879 27.3316 46.4097 26.9098C46.8316 26.488 47.4035 26.2507 48 26.25Z" fill="#29939B"/>
</svg>
