<svg width="96" height="96" viewBox="0 0 96 96" fill="none" xmlns="http://www.w3.org/2000/svg">
<g clip-path="url(#clip0)">
<path fill-rule="evenodd" clip-rule="evenodd" d="M94.7659 6.53036C94.5244 6.24368 94.1788 6.06461 93.8053 6.03274L72.9126 4.2483L72.5338 1.23743C72.4363 0.462863 71.7277 -0.0861371 70.9551 0.0111754L51.5737 2.44793C51.4974 2.42805 51.4193 2.41305 51.3379 2.40611L24.6986 0.130613C23.9316 0.0631129 23.2352 0.652988 23.1699 1.41855L22.7728 6.06855L2.13863 8.6628C1.37513 8.7588 0.816565 9.47749 0.912377 10.2416L11.445 94.0181C11.4619 94.1528 11.4626 94.2856 11.4633 94.4174C11.4646 94.6594 11.4659 94.8976 11.5671 95.1369C11.7861 95.6545 12.3073 96.0001 12.8696 96.0001H82.2276C83.0085 96.0001 83.6411 95.3675 83.6411 94.5865V92.7455L86.3788 92.9793C87.1459 93.0459 87.8422 92.4573 87.9075 91.6914L95.0931 7.5618C95.1251 7.18811 95.0076 6.81724 94.7659 6.53036ZM11.4561 71.4417L3.894 11.2914L11.4561 10.3407V71.4417ZM25.8666 3.0678L38.2378 4.12436L25.6412 5.70818L25.8666 3.0678ZM69.9053 2.99261L70.6275 8.73705H24.2117L69.9053 2.99261ZM85.2111 90.0421L83.6411 89.9081V48.599C83.6411 47.8182 83.0085 47.1854 82.2276 47.1854C81.4466 47.1854 80.814 47.8181 80.814 48.599V93.1728H14.2832V11.5642H80.8142V42.0026C80.8142 42.7835 81.4468 43.4161 82.2277 43.4161C83.0087 43.4161 83.6413 42.7835 83.6413 42.0026V10.1506C83.6413 9.36986 83.0087 8.73705 82.2277 8.73705H73.4769L73.2731 7.11649L92.1561 8.72936L85.2111 90.0421ZM74.6888 16.2762H67.1498C66.6771 16.2762 66.2357 16.5123 65.9738 16.9056L62.7743 21.7049C59.3305 19.2379 55.1141 17.7839 50.5643 17.7839C49.7835 17.7839 49.1507 18.4165 49.1507 19.1974V38.7987C49.1507 39.5794 49.7833 40.2123 50.5643 40.2123H70.1655C70.9465 40.2123 71.5791 39.5796 71.5791 38.7987C71.5791 32.7805 69.0355 27.346 64.9678 23.5113L67.9065 19.1033H74.689C75.4697 19.1033 76.1025 18.4707 76.1025 17.6898C76.1025 16.9088 75.4695 16.2762 74.6888 16.2762ZM68.6976 37.3851H51.9778V20.6654C55.4059 20.9301 58.5685 22.1526 61.204 24.0604L59.9426 25.9525C59.5487 26.5431 59.6642 27.3612 60.2083 27.8181C60.8455 28.3533 61.8338 28.2121 62.2948 27.5208L63.3743 25.9015C66.3797 28.8869 68.3518 32.9114 68.6976 37.3851ZM61.9022 63.0173H74.6888C75.4695 63.0173 76.1023 63.6501 76.1023 64.431C76.1023 65.212 75.4695 65.8446 74.6888 65.8446H61.1186C60.6313 65.8446 60.1783 65.5936 59.9199 65.1803L57.5199 61.3403C53.9426 64.1601 49.431 65.8446 44.5329 65.8446C32.9454 65.8446 23.5181 56.4173 23.5181 44.8298C23.5181 33.2423 32.9454 23.815 44.5329 23.815C45.3137 23.815 45.9465 24.4478 45.9465 25.2285V43.4162H64.1342C64.9151 43.4162 65.5478 44.0489 65.5478 44.8298C65.5478 50.488 63.2989 55.6307 59.6492 59.4126L61.9022 63.0173ZM52.8308 51.1699C53.4926 50.7561 54.3651 50.9571 54.7787 51.6195L58.0986 56.9318C60.6774 54.0443 62.3507 50.3312 62.6664 46.2435H44.5331C43.7524 46.2435 43.1196 45.6107 43.1196 44.83V26.6967C33.7489 27.4204 26.3454 35.2769 26.3454 44.83C26.3454 54.8586 34.5045 63.0177 44.5331 63.0177C48.882 63.0177 52.8789 61.4828 56.0119 58.927L52.3811 53.1179C51.9673 52.4558 52.1687 51.5836 52.8308 51.1699ZM32.4707 70.5562H20.4084C19.6278 70.5562 18.9948 71.1888 18.9948 71.9698C18.9948 72.7507 19.6277 73.3833 20.4084 73.3833H32.4707C33.2514 73.3833 33.8842 72.7507 33.8842 71.9698C33.8842 71.1888 33.2514 70.5562 32.4707 70.5562ZM38.502 70.5562H50.5642C51.345 70.5562 51.9778 71.1888 51.9778 71.9698C51.9778 72.7507 51.345 73.3833 50.5642 73.3833H38.502C37.7212 73.3833 37.0884 72.7507 37.0884 71.9698C37.0884 71.1888 37.7212 70.5562 38.502 70.5562ZM40.0097 78.0952H20.4084C19.6278 78.0952 18.9948 78.7278 18.9948 79.5088C18.9948 80.2897 19.6277 80.9223 20.4084 80.9223H40.0097C40.7904 80.9223 41.4232 80.2897 41.4232 79.5088C41.4232 78.7278 40.7902 78.0952 40.0097 78.0952ZM46.0408 78.0952H50.5643C51.345 78.0952 51.9776 78.7278 51.9778 79.5088C51.9778 80.2897 51.345 80.9223 50.5643 80.9223H46.0408C45.2601 80.9223 44.6273 80.2897 44.6273 79.5088C44.6273 78.7278 45.2603 78.0952 46.0408 78.0952ZM26.4395 85.634H20.4084C19.6278 85.634 18.9948 86.2666 18.9948 87.0475C18.9948 87.8285 19.6277 88.4611 20.4084 88.4611H26.4395C27.2203 88.4611 27.8531 87.8285 27.8531 87.0475C27.8531 86.2666 27.2203 85.634 26.4395 85.634ZM32.4708 85.634H50.5642C51.345 85.634 51.9778 86.2666 51.9778 87.0475C51.9778 87.8285 51.345 88.4611 50.5642 88.4611H32.4708C31.6901 88.4611 31.0573 87.8285 31.0573 87.0475C31.0573 86.2666 31.6903 85.634 32.4708 85.634Z" fill="#29939B"/>
</g>
<defs>
<clipPath id="clip0">
<rect width="96" height="96" fill="white"/>
</clipPath>
</defs>
</svg>
